<?xml version="1.0" encoding="utf-8"?>
<!-- Generator: Adobe Illustrator 26.0.1, SVG Export Plug-In . SVG Version: 6.00 Build 0)  -->
<svg version="1.1" xmlns="http://www.w3.org/2000/svg" xmlns:xlink="http://www.w3.org/1999/xlink" x="0px" y="0px"
	 viewBox="0 0 393.98 170.7" style="enable-background:new 0 0 393.98 170.7;" xml:space="preserve">
<style type="text/css">
	.st0{fill:#FFFFFF;}
	.st1{fill:url(#SVGID_1_);}
	.st2{fill:url(#SVGID_00000060018511404296435690000015280128177480564151_);}
	.st3{fill:url(#SVGID_00000061429539714538921430000001158603873225242251_);}
	.st4{fill:url(#SVGID_00000166662313538021107510000007501567199282355132_);}
	.st5{fill:url(#SVGID_00000017497895106961924350000009491085990640719514_);}
	.st6{fill:#F0F9F9;}
	.st7{font-family:'Dubai-Regular';}
	.st8{font-size:54.3511px;}
	.st9{fill:#D6F1A0;}
	.st10{font-family:'KristenITC-Regular';}
	.st11{font-size:24.5289px;}
</style>
<g id="BACKGROUND">
	<rect id="XMLID_1_" x="-96.43" y="-134.05" class="st0" width="500" height="500"/>
</g>
<g id="OBJECTS">
	<g>
		<g>
			
				<linearGradient id="SVGID_1_" gradientUnits="userSpaceOnUse" x1="106.3316" y1="77.9422" x2="104.2405" y2="-45.778" gradientTransform="matrix(0.6791 -0.734 0.734 0.6791 14.2438 127.9874)">
				<stop  offset="0" style="stop-color:#3E38C9"/>
				<stop  offset="0.4916" style="stop-color:#00989F"/>
				<stop  offset="1" style="stop-color:#D6F1A0"/>
			</linearGradient>
			<path class="st1" d="M109.8,55.86c0,0,0.01,0.01,0.01,0.02c4.12,11.05,6.09,24.63,4.88,41.32l-0.19-0.18
				C99.54,24.47,35.67,21.65,33.02,21.56C89.96,19.06,109.32,54.95,109.8,55.86z"/>
			
				<linearGradient id="SVGID_00000097494374944231240740000016588646750818655648_" gradientUnits="userSpaceOnUse" x1="101.6364" y1="54.8645" x2="97.4707" y2="-70.1047" gradientTransform="matrix(0.6791 -0.734 0.734 0.6791 14.2438 127.9874)">
				<stop  offset="0" style="stop-color:#D6F1A0"/>
				<stop  offset="0.5084" style="stop-color:#00989F"/>
				<stop  offset="1" style="stop-color:#3E38C9"/>
			</linearGradient>
			<path style="fill:url(#SVGID_00000097494374944231240740000016588646750818655648_);" d="M114.49,97.02
				C91.52,36.07,33.02,21.56,33.02,21.56C35.67,21.65,99.54,24.47,114.49,97.02z"/>
			
				<linearGradient id="SVGID_00000039820181441775458050000000237730128737559733_" gradientUnits="userSpaceOnUse" x1="112.5508" y1="90.489" x2="172.4294" y2="20.1055">
				<stop  offset="0" style="stop-color:#3E38C9"/>
				<stop  offset="0.4916" style="stop-color:#00989F"/>
				<stop  offset="1" style="stop-color:#D6F1A0"/>
			</linearGradient>
			<path style="fill:url(#SVGID_00000039820181441775458050000000237730128737559733_);" d="M118.78,91.19l0.1-0.16
				c48.43-18.38,43.29-62.79,43.05-64.64c0-0.01,0-0.03-0.01-0.04c0-0.01,0-0.01,0-0.01c0-0.01,0-0.01,0-0.01l-0.25-0.17
				c-39.17,7.65-46.45,35.25-46.62,35.95c0-0.04,0.01-0.07,0.01-0.11c0.07-0.51,0.13-1,0.21-1.49c0.05-0.33,0.11-0.67,0.16-0.99
				c0.08-0.4,0.15-0.8,0.23-1.2l0.15-0.71c0.05-0.24,0.1-0.47,0.16-0.71c0.05-0.24,0.11-0.48,0.17-0.71
				c0.06-0.24,0.12-0.47,0.18-0.7c0.06-0.22,0.12-0.43,0.18-0.65c0.03-0.13,0.07-0.26,0.1-0.38c0.07-0.22,0.13-0.44,0.2-0.65
				c0.17-0.56,0.35-1.1,0.54-1.63c0.07-0.22,0.15-0.44,0.23-0.65c0.08-0.21,0.16-0.43,0.24-0.64c0.16-0.42,0.33-0.84,0.5-1.26
				c0.09-0.2,0.18-0.41,0.26-0.62c0.05-0.1,0.1-0.21,0.14-0.3c0.05-0.1,0.09-0.2,0.14-0.3c0.21-0.46,0.42-0.9,0.64-1.34
				c0.1-0.19,0.19-0.38,0.29-0.57c0.12-0.23,0.25-0.47,0.37-0.7c0.25-0.46,0.5-0.91,0.76-1.36c0.13-0.22,0.26-0.44,0.4-0.66
				c0.07-0.12,0.14-0.24,0.21-0.35c0.01-0.03,0.03-0.05,0.04-0.07c0.47-0.76,0.96-1.49,1.46-2.2c0.23-0.33,0.46-0.66,0.71-0.98
				c0.19-0.24,0.37-0.5,0.57-0.74c0.06-0.08,0.13-0.17,0.2-0.26c0.23-0.3,0.47-0.59,0.71-0.88l0.01-0.01
				c0.24-0.29,0.48-0.57,0.72-0.86c0.02-0.02,0.04-0.04,0.06-0.06c0.26-0.3,0.51-0.59,0.77-0.87c0.21-0.23,0.42-0.46,0.64-0.69
				c0.09-0.11,0.18-0.21,0.28-0.3c0.2-0.21,0.39-0.41,0.6-0.62c0.05-0.05,0.1-0.1,0.15-0.15c0.25-0.26,0.51-0.52,0.77-0.76
				c0.01-0.01,0.03-0.02,0.03-0.03c0.22-0.21,0.44-0.42,0.67-0.63c0.14-0.13,0.28-0.26,0.42-0.39c0.23-0.22,0.48-0.43,0.72-0.64
				c0.25-0.22,0.5-0.45,0.76-0.66c0.25-0.22,0.51-0.44,0.77-0.65c0.1-0.08,0.21-0.17,0.32-0.26c0.2-0.15,0.39-0.31,0.59-0.48
				c1.03-0.82,2.09-1.59,3.15-2.33c0.2-0.14,0.39-0.27,0.59-0.4c1.69-1.15,3.41-2.19,5.12-3.15c0.21-0.12,0.42-0.23,0.63-0.35
				c0.7-0.39,1.41-0.76,2.11-1.11c0.28-0.14,0.56-0.29,0.83-0.42c0.84-0.42,1.68-0.81,2.51-1.18c0.26-0.12,0.52-0.23,0.78-0.35
				c0.19-0.09,0.39-0.17,0.58-0.25c0.25-0.11,0.49-0.21,0.73-0.31c0.39-0.17,0.78-0.32,1.16-0.47c0.31-0.13,0.62-0.25,0.93-0.37
				c0.31-0.12,0.61-0.24,0.92-0.36c0.3-0.11,0.6-0.23,0.9-0.33c0.3-0.11,0.59-0.22,0.89-0.32c0.3-0.1,0.59-0.2,0.87-0.31
				c0.04-0.02,0.09-0.03,0.13-0.05c0.83-0.28,1.61-0.54,2.38-0.78c0.01,0,0.01,0,0.01,0c0.27-0.09,0.53-0.17,0.79-0.24
				c0.56-0.18,1.11-0.33,1.63-0.48c0.21-0.06,0.42-0.12,0.63-0.18c0.96-0.26,1.85-0.49,2.67-0.7c0.12-0.03,0.24-0.06,0.35-0.08
				c0.28-0.07,0.55-0.13,0.81-0.19c0.18-0.04,0.35-0.08,0.53-0.12c0.52-0.11,0.98-0.21,1.41-0.3c0.14-0.03,0.27-0.06,0.4-0.08
				c0.75-0.15,1.29-0.24,1.56-0.29l0.01,0c0.08,0.32,0.23,0.99,0.42,1.95c0.03,0.14,0.06,0.29,0.08,0.44
				c0.24,1.2,0.51,2.79,0.77,4.69c0.06,0.47,0.12,0.97,0.19,1.48c0.03,0.26,0.06,0.52,0.09,0.78c0.05,0.52,0.11,1.07,0.16,1.64
				c0.21,2.25,0.36,4.75,0.39,7.43c0.01,0.34,0.01,0.67,0.01,1.01c0,0.69-0.01,1.38-0.03,2.08c0,0.35-0.01,0.7-0.03,1.06l0,0.01
				c-0.06,1.65-0.17,3.35-0.34,5.07c-0.02,0.26-0.05,0.51-0.08,0.77c-0.09,0.87-0.2,1.76-0.33,2.64c-0.03,0.24-0.08,0.48-0.12,0.73
				c-0.22,1.4-0.48,2.81-0.79,4.22l0,0.01c-0.18,0.77-0.36,1.54-0.56,2.3c-0.19,0.72-0.39,1.44-0.61,2.16
				c-0.22,0.72-0.45,1.43-0.7,2.15c-0.07,0.19-0.13,0.39-0.21,0.58c-1.54,4.29-3.64,8.5-6.48,12.41c-0.27,0.38-0.56,0.76-0.85,1.14
				c-0.29,0.38-0.58,0.75-0.89,1.12c-0.15,0.18-0.31,0.36-0.46,0.55c-0.31,0.37-0.64,0.73-0.96,1.09c-0.16,0.18-0.33,0.36-0.5,0.53
				c-0.15,0.16-0.3,0.31-0.45,0.48l-1.41,1.39c-0.16,0.15-0.33,0.3-0.49,0.45c-0.17,0.15-0.33,0.3-0.5,0.45
				c-0.17,0.16-0.33,0.3-0.51,0.44c-0.51,0.44-1.04,0.88-1.58,1.3c-0.54,0.42-1.1,0.85-1.68,1.25c-0.22,0.16-0.43,0.31-0.65,0.46
				c-0.17,0.11-0.34,0.23-0.52,0.35c-0.19,0.13-0.39,0.27-0.6,0.4c-0.2,0.12-0.4,0.26-0.61,0.39c-0.41,0.26-0.83,0.51-1.25,0.76
				c-0.21,0.12-0.41,0.24-0.63,0.36c-0.01,0.01-0.01,0.01-0.01,0.01C139.59,87.3,130.43,90.18,118.78,91.19z"/>
			
				<linearGradient id="SVGID_00000003077159001851132900000013664162294325129095_" gradientUnits="userSpaceOnUse" x1="1.3737" y1="125.4004" x2="86.6848" y2="25.1226">
				<stop  offset="0" style="stop-color:#F9D7A8"/>
				<stop  offset="1" style="stop-color:#D6F1A0"/>
			</linearGradient>
			<path style="fill:url(#SVGID_00000003077159001851132900000013664162294325129095_);" d="M32.93,21.56l-0.31,0.32
				c1.77,53.07,34.21,71.08,39.47,73.65c0.05,0.01,0.12,0.02,0.17,0.03c0.03,0.01,0.06,0.01,0.1,0.03h-0.15
				c0.32,0.15,0.52,0.24,0.59,0.27c-0.05-0.01-0.1-0.03-0.14-0.04c-0.27-0.08-0.54-0.16-0.8-0.24c-4.03-0.03-30,1.17-47.58,33.96
				l0.09,0.29l0.01,0.01c0,0,0,0,0.01,0c0.01,0.01,0.03,0.02,0.04,0.02c1.57,0.72,36.9,16.27,67.42-14.11
				c-32.33,46.61-79.97,18.36-80.79,17.88c-0.01-0.01-0.01-0.01-0.01-0.01c0.14-0.24,0.37-0.73,0.74-1.4
				c0.05-0.12,0.12-0.23,0.19-0.36c0.21-0.38,0.44-0.79,0.7-1.25c0.09-0.15,0.18-0.31,0.27-0.47c0.14-0.23,0.27-0.47,0.42-0.72
				c0.06-0.11,0.13-0.21,0.18-0.32c0.44-0.72,0.92-1.5,1.46-2.34c0.11-0.18,0.23-0.36,0.35-0.55c0.3-0.46,0.6-0.94,0.94-1.41
				c0.15-0.23,0.31-0.45,0.47-0.68c0,0,0,0,0-0.01c0.47-0.66,0.94-1.33,1.45-2.04c0.03-0.03,0.05-0.07,0.08-0.11
				c0.18-0.24,0.36-0.49,0.55-0.74c0.19-0.25,0.38-0.5,0.57-0.76c0.19-0.25,0.39-0.5,0.59-0.76c0.2-0.26,0.41-0.51,0.61-0.77
				c0.21-0.25,0.41-0.51,0.62-0.77c0.26-0.32,0.52-0.64,0.79-0.96c0.17-0.21,0.34-0.41,0.52-0.6c0.14-0.16,0.26-0.33,0.41-0.49
				c0.18-0.22,0.36-0.42,0.56-0.64c0.59-0.68,1.22-1.37,1.86-2.05c0.22-0.22,0.43-0.44,0.65-0.67c0.54-0.57,1.11-1.13,1.68-1.69
				c0.17-0.17,0.34-0.33,0.52-0.5c1.41-1.36,2.92-2.69,4.51-3.97c0.19-0.14,0.37-0.3,0.56-0.44c1.02-0.8,2.07-1.59,3.15-2.33
				c0.22-0.14,0.43-0.28,0.63-0.42c0.12-0.07,0.23-0.15,0.34-0.23c0.29-0.19,0.57-0.37,0.86-0.55c0.28-0.18,0.57-0.36,0.86-0.53
				c0.27-0.17,0.55-0.34,0.83-0.5c0.16-0.1,0.32-0.2,0.5-0.3c0.26-0.15,0.52-0.3,0.79-0.45c0.01,0,0.02-0.01,0.04-0.02
				c0.31-0.17,0.63-0.34,0.95-0.5c0.05-0.04,0.13-0.07,0.18-0.1c0.26-0.14,0.51-0.27,0.77-0.4c0.12-0.06,0.24-0.13,0.37-0.18
				c0.28-0.13,0.56-0.28,0.85-0.41c0.35-0.16,0.69-0.32,1.05-0.49c0.03-0.01,0.05-0.02,0.08-0.04c0.34-0.14,0.68-0.29,1.04-0.43
				h0.01c0.34-0.14,0.69-0.29,1.04-0.42c0.1-0.04,0.21-0.08,0.31-0.11c0.3-0.12,0.59-0.22,0.88-0.32c0.38-0.14,0.76-0.27,1.14-0.39
				c0.83-0.27,1.68-0.52,2.54-0.75c0.03,0,0.05-0.01,0.08-0.02c0.13-0.04,0.26-0.07,0.4-0.1c0.25-0.06,0.5-0.13,0.75-0.19
				c0.5-0.12,1.01-0.23,1.52-0.32c0.26-0.04,0.52-0.1,0.78-0.15c0.22-0.04,0.41-0.06,0.63-0.1c0.49-0.08,0.97-0.15,1.47-0.22
				c0.11-0.02,0.23-0.03,0.33-0.04c0.11-0.02,0.23-0.04,0.33-0.04c0.23-0.02,0.44-0.05,0.67-0.07c0.45-0.04,0.9-0.08,1.35-0.11
				c0.23-0.02,0.45-0.04,0.68-0.04c0.23-0.01,0.46-0.02,0.68-0.03c0.57-0.03,1.14-0.04,1.72-0.04c0.23,0,0.45,0.01,0.68,0
				c0.13,0.01,0.26,0.01,0.39,0.02c0.23,0.01,0.45,0.01,0.68,0.02c0.23,0.01,0.48,0.02,0.72,0.04c0.25,0.01,0.5,0.03,0.74,0.05
				c0.24,0.02,0.48,0.04,0.72,0.05l0.72,0.07c0.41,0.04,0.81,0.09,1.22,0.13c0.32,0.05,0.66,0.1,0.99,0.14
				c0.16,0.03,0.32,0.05,0.5,0.08c-0.23-0.07-0.46-0.14-0.68-0.22c-0.45-0.14-0.91-0.3-1.36-0.45c-0.55-0.19-1.09-0.39-1.63-0.59
				l-0.98-0.38c-0.32-0.13-0.63-0.25-0.95-0.38c-0.32-0.14-0.65-0.27-0.97-0.41c-0.32-0.14-0.64-0.28-0.95-0.41
				c-0.29-0.14-0.58-0.27-0.87-0.4c-0.17-0.08-0.34-0.16-0.5-0.24c-0.3-0.14-0.59-0.28-0.88-0.42c-0.74-0.37-1.47-0.75-2.18-1.13
				c-0.29-0.15-0.58-0.32-0.86-0.47c-0.29-0.16-0.57-0.32-0.85-0.49c-0.56-0.32-1.12-0.66-1.67-1c-0.26-0.17-0.53-0.34-0.81-0.51
				c-0.13-0.09-0.26-0.18-0.4-0.26c-0.13-0.09-0.27-0.18-0.4-0.26c-0.59-0.4-1.17-0.8-1.75-1.21c-0.25-0.18-0.5-0.36-0.75-0.54
				c-0.31-0.22-0.61-0.45-0.91-0.68c-0.59-0.45-1.17-0.91-1.74-1.38c-0.29-0.23-0.57-0.47-0.85-0.71c-0.15-0.12-0.31-0.25-0.44-0.38
				c-0.04-0.03-0.07-0.05-0.1-0.08c-0.95-0.83-1.89-1.69-2.78-2.57c-0.41-0.4-0.82-0.8-1.22-1.22c-0.31-0.32-0.61-0.64-0.92-0.96
				c-0.11-0.11-0.22-0.23-0.32-0.34c-0.37-0.4-0.73-0.79-1.08-1.2c-0.01-0.01-0.01-0.01-0.01-0.01c-0.36-0.41-0.71-0.81-1.05-1.22
				c-0.03-0.04-0.05-0.06-0.07-0.1c-0.37-0.42-0.72-0.86-1.06-1.29c-0.28-0.35-0.55-0.7-0.82-1.05c-0.13-0.15-0.25-0.31-0.36-0.47
				c-0.25-0.32-0.5-0.65-0.74-0.98c-0.06-0.09-0.12-0.17-0.18-0.25c-0.31-0.41-0.6-0.83-0.89-1.25c-0.02-0.02-0.03-0.04-0.04-0.05
				c-0.25-0.35-0.5-0.71-0.74-1.08c-0.15-0.23-0.31-0.45-0.45-0.68c-0.25-0.38-0.5-0.77-0.75-1.16c-0.26-0.4-0.51-0.81-0.77-1.22
				c-0.24-0.41-0.5-0.82-0.74-1.23c-0.09-0.17-0.19-0.34-0.29-0.51c-0.18-0.32-0.36-0.63-0.54-0.95c-0.92-1.65-1.77-3.31-2.57-4.98
				c-0.15-0.31-0.3-0.61-0.43-0.92c-1.24-2.66-2.32-5.31-3.29-7.95c-0.12-0.32-0.23-0.64-0.35-0.96c-0.39-1.09-0.75-2.17-1.09-3.24
				c-0.14-0.42-0.27-0.85-0.4-1.27c-0.41-1.28-0.77-2.55-1.11-3.8c-0.11-0.4-0.21-0.79-0.32-1.19c-0.07-0.29-0.15-0.58-0.23-0.87
				c-0.09-0.37-0.19-0.74-0.27-1.1c-0.14-0.59-0.28-1.17-0.41-1.74c-0.12-0.48-0.22-0.94-0.32-1.41c-0.1-0.45-0.2-0.91-0.29-1.37
				c-0.09-0.45-0.19-0.9-0.27-1.34c-0.09-0.45-0.17-0.88-0.25-1.32c-0.08-0.44-0.16-0.87-0.23-1.31c-0.02-0.05-0.02-0.13-0.04-0.19
				c-0.21-1.22-0.4-2.4-0.56-3.54c-0.01,0-0.01,0-0.01,0c-0.05-0.4-0.11-0.79-0.16-1.18c-0.12-0.82-0.22-1.63-0.31-2.4
				c-0.04-0.32-0.07-0.63-0.11-0.93c-0.15-1.41-0.28-2.73-0.38-3.93c-0.01-0.17-0.03-0.34-0.04-0.51c-0.04-0.41-0.06-0.81-0.09-1.19
				c-0.01-0.27-0.03-0.52-0.05-0.78c-0.05-0.75-0.08-1.43-0.11-2.04c-0.01-0.21-0.02-0.4-0.02-0.58c-0.04-1.1-0.05-1.87-0.05-2.28
				h0.01c0.47-0.04,1.44-0.1,2.85-0.15c0.21-0.01,0.42-0.02,0.63-0.02c1.76-0.06,4.07-0.08,6.8-0.01c0.68,0.01,1.4,0.04,2.13,0.06
				c0.37,0.02,0.74,0.04,1.12,0.05c0.76,0.04,1.55,0.08,2.35,0.14c3.22,0.22,6.79,0.57,10.58,1.13c0.48,0.06,0.95,0.14,1.43,0.22
				c0.96,0.15,1.94,0.32,2.92,0.5c0.5,0.09,0.99,0.18,1.49,0.28h0.01c2.31,0.47,4.69,1.01,7.09,1.64c0.36,0.09,0.71,0.18,1.06,0.29
				c1.21,0.32,2.43,0.68,3.66,1.06c0.33,0.11,0.67,0.22,1,0.33c1.93,0.61,3.85,1.31,5.78,2.07h0.01c1.04,0.42,2.09,0.86,3.13,1.32
				c0.97,0.43,1.95,0.88,2.92,1.35c0.96,0.47,1.92,0.96,2.87,1.48c0.26,0.14,0.52,0.28,0.77,0.42c5.72,3.13,11.18,7.06,16.05,11.96
				c0.48,0.48,0.95,0.96,1.41,1.46c0.46,0.5,0.92,1.01,1.37,1.52c0.23,0.26,0.45,0.51,0.68,0.77c0.44,0.53,0.88,1.07,1.32,1.61
				c0.22,0.27,0.43,0.55,0.65,0.83c0.19,0.24,0.37,0.49,0.57,0.74c0.56,0.76,1.1,1.52,1.64,2.31c0.18,0.27,0.35,0.53,0.52,0.8
				c0.18,0.27,0.35,0.53,0.52,0.81c0.18,0.26,0.35,0.54,0.51,0.81c0.5,0.83,1,1.67,1.48,2.53c0.48,0.86,0.95,1.75,1.39,2.65
				c0.17,0.34,0.33,0.68,0.5,1.02c0.12,0.27,0.24,0.54,0.37,0.81c0.14,0.31,0.28,0.62,0.42,0.94c0.14,0.32,0.27,0.62,0.41,0.95
				c0.27,0.63,0.53,1.28,0.79,1.93c0.12,0.32,0.24,0.65,0.36,0.97c-0.48-0.91-19.84-36.8-76.78-34.3c-0.03-0.01-0.05-0.01-0.07-0.01
				c0,0.01,0,0.01,0,0.01C32.94,21.56,32.93,21.56,32.93,21.56z"/>
			
				<linearGradient id="SVGID_00000000943039757879080800000005467292716330210225_" gradientUnits="userSpaceOnUse" x1="96.1032" y1="116.669" x2="96.1251" y2="116.669">
				<stop  offset="0" style="stop-color:#00989F"/>
				<stop  offset="1" style="stop-color:#D6F1A0"/>
			</linearGradient>
			<path style="fill:url(#SVGID_00000000943039757879080800000005467292716330210225_);" d="M96.13,116.65
				c-0.01,0.01-0.01,0.02-0.02,0.03"/>
		</g>
		<text transform="matrix(1 0 0 1 89.1275 127.7279)" class="st6 st7 st8">PARA TUN</text>
		<text transform="matrix(1 0 0 1 130.4842 148.147)" class="st9 st10 st11">take care of yourself</text>
	</g>
</g>
<g id="DESIGNED_BY_FREEPIK">
</g>
</svg>
