<?xml version="1.0" encoding="utf-8"?>
<!-- Generator: Adobe Illustrator 26.0.1, SVG Export Plug-In . SVG Version: 6.00 Build 0)  -->
<svg version="1.1" id="Calque_1" xmlns="http://www.w3.org/2000/svg" xmlns:xlink="http://www.w3.org/1999/xlink" x="0px" y="0px"
	 viewBox="0 0 369 254.18" style="enable-background:new 0 0 369 254.18;" xml:space="preserve">
<style type="text/css">
	.st0{opacity:0.01;fill:#C6C6C6;}
	.st1{opacity:0.02;fill:#C6C6C6;}
	.st2{opacity:0.03;fill:#C6C6C6;}
	.st3{fill:url(#SVGID_1_);}
	.st4{fill:url(#SVGID_00000158728798205926859150000011894413910372954030_);}
	.st5{filter:url(#Adobe_OpacityMaskFilter);}
	.st6{filter:url(#Adobe_OpacityMaskFilter_00000007392110928739919340000013507519721922563475_);}
	
		.st7{mask:url(#SVGID_00000056421544567310317690000006285650174819369391_);fill:url(#SVGID_00000114067913362349836930000007589480962690678204_);}
	.st8{fill:url(#SVGID_00000173157631798011449030000018152509247106279575_);}
	.st9{opacity:0.37;}
	.st10{fill:#006633;}
	.st11{fill:url(#SVGID_00000026123119974235412690000000096435215946586014_);}
	.st12{filter:url(#Adobe_OpacityMaskFilter_00000014603877731432928600000011502491244287423137_);}
	.st13{filter:url(#Adobe_OpacityMaskFilter_00000062912017404650573890000004467771828539832727_);}
	
		.st14{mask:url(#SVGID_00000114760174269780353680000001378842239272720307_);fill:url(#SVGID_00000158007292837619494980000000204593165279480231_);}
	.st15{fill:url(#SVGID_00000143606355687914037600000016677848465922793878_);}
	.st16{fill:url(#SVGID_00000179618235591086069260000002202003837972623019_);}
	.st17{fill:url(#SVGID_00000102517203333181344940000001384259457680625804_);}
	.st18{fill:url(#SVGID_00000176749544129227401830000013155816712478165143_);}
	.st19{filter:url(#Adobe_OpacityMaskFilter_00000087394356392932798150000001766163694715475639_);}
	.st20{filter:url(#Adobe_OpacityMaskFilter_00000127723336117790800520000002009202152475543979_);}
	
		.st21{mask:url(#SVGID_00000121960344785040189860000000170854917972670088_);fill:url(#SVGID_00000169556459064380464720000016952645107043866009_);}
	.st22{fill:url(#SVGID_00000109014654614683894520000004556261232899430036_);}
	.st23{fill:url(#SVGID_00000090292509836862641760000018061325193270433974_);}
	.st24{filter:url(#Adobe_OpacityMaskFilter_00000033359661705604729370000001482549540766562992_);}
	.st25{filter:url(#Adobe_OpacityMaskFilter_00000038413628542765187080000005631495722750271105_);}
	
		.st26{mask:url(#SVGID_00000036237194309898164570000005728658022687060403_);fill:url(#SVGID_00000053510701570804168340000010913209292350237605_);}
	.st27{fill:url(#SVGID_00000050626443686960717700000008599507392170054583_);}
	.st28{fill:url(#SVGID_00000007404169862986735650000005721987378051987346_);}
</style>
<g>
	<g>
		<path class="st0" d="M-0.77,218.17c-0.58,8.05,51.34,17.52,115.96,21.16c64.6,3.64,117.46,0.06,118.04-7.98
			c0.58-8.04-51.35-17.51-115.95-21.15C52.66,206.55-0.19,210.13-0.77,218.17z"/>
		<path class="st1" d="M3.97,218.43c-0.56,7.72,49.25,16.8,111.27,20.3c61.99,3.49,112.71,0.06,113.26-7.66
			c0.55-7.72-49.26-16.8-111.25-20.29C55.23,207.29,4.52,210.72,3.97,218.43z"/>
		<path class="st2" d="M8.68,218.7c-0.53,7.4,47.19,16.11,106.6,19.45c59.39,3.34,107.96,0.05,108.5-7.35
			c0.53-7.39-47.18-16.1-106.57-19.44C57.8,208.02,9.21,211.31,8.68,218.7z"/>
		<path class="st2" d="M12.06,218.89c-0.51,7.17,45.7,15.6,103.25,18.84c57.52,3.24,104.57,0.05,105.08-7.11
			c0.52-7.16-45.7-15.59-103.22-18.83C59.62,208.55,12.57,211.73,12.06,218.89z"/>
		<path class="st2" d="M17.12,219.17c-0.49,6.82,43.47,14.83,98.23,17.92c54.74,3.08,99.5,0.06,99.98-6.76
			c0.49-6.81-43.47-14.84-98.21-17.92C62.37,209.33,17.61,212.36,17.12,219.17z"/>
		<path class="st2" d="M20.48,219.36c-0.47,6.59,42.01,14.34,94.91,17.32c52.88,2.98,96.13,0.05,96.6-6.54
			c0.47-6.58-42.01-14.34-94.89-17.32C64.2,209.85,20.95,212.78,20.48,219.36z"/>
		<path class="st2" d="M25.51,219.97c-0.46,6.41,40.89,13.96,92.4,16.85c51.48,2.9,93.59,0.05,94.05-6.36
			c0.46-6.42-40.9-13.95-92.38-16.85C68.07,210.71,25.97,213.55,25.51,219.97z"/>
		<path class="st2" d="M32.25,220.35c-0.43,5.95,37.94,12.94,85.72,15.63c47.76,2.69,86.83,0.05,87.26-5.9
			c0.43-5.96-37.95-12.96-85.71-15.64C71.74,211.75,32.68,214.39,32.25,220.35z"/>
		<path class="st2" d="M37.29,220.63c-0.4,5.6,35.74,12.19,80.72,14.72c44.97,2.53,81.75,0.05,82.16-5.55
			c0.4-5.61-35.73-12.2-80.7-14.74C74.49,212.53,37.7,215.02,37.29,220.63z"/>
		<path class="st2" d="M40.67,220.82c-0.39,5.36,34.25,11.68,77.37,14.11c43.11,2.43,78.36,0.04,78.75-5.32
			c0.38-5.38-34.25-11.69-77.35-14.12C76.32,213.07,41.06,215.45,40.67,220.82z"/>
		<path class="st2" d="M44.05,221.01c-0.37,5.13,32.76,11.18,74.02,13.5c41.23,2.32,74.97,0.04,75.34-5.1
			c0.37-5.14-32.77-11.19-74-13.51C78.15,213.59,44.42,215.87,44.05,221.01z"/>
		<path class="st2" d="M47.7,221.22c-0.35,4.88,31.17,10.62,70.41,12.83c39.21,2.21,71.3,0.05,71.65-4.84
			c0.35-4.9-31.16-10.64-70.38-12.85C80.14,214.16,48.05,216.32,47.7,221.22z"/>
		<path class="st2" d="M54.45,221.6c-0.32,4.42,28.21,9.62,63.72,11.62c35.49,2,64.52,0.04,64.84-4.38
			c0.32-4.43-28.2-9.63-63.69-11.63C83.81,215.21,54.77,217.17,54.45,221.6z"/>
		<path class="st2" d="M45.71,220.78c-0.35,4.85,30.95,10.56,69.9,12.75c38.95,2.19,70.8,0.03,71.15-4.82
			c0.35-4.84-30.94-10.55-69.88-12.74C77.92,213.79,46.06,215.94,45.71,220.78z"/>
		<path class="st2" d="M47.92,220.91c-0.34,4.7,29.98,10.23,67.71,12.36c37.71,2.12,68.57,0.03,68.91-4.67
			c0.34-4.7-29.98-10.22-67.68-12.34C79.12,214.13,48.26,216.21,47.92,220.91z"/>
		<path class="st2" d="M51.24,221.09c-0.32,4.48,28.51,9.73,64.42,11.75c35.89,2.02,65.24,0.04,65.56-4.44
			c0.32-4.47-28.5-9.72-64.39-11.74C80.91,214.65,51.56,216.63,51.24,221.09z"/>
		<path class="st2" d="M53.43,221.22c-0.31,4.33,27.56,9.4,62.24,11.36c34.67,1.95,63.04,0.04,63.35-4.29
			c0.31-4.32-27.56-9.4-62.23-11.35C82.12,214.99,53.75,216.9,53.43,221.22z"/>
		<path class="st2" d="M56.75,221.62c-0.3,4.2,26.82,9.15,60.58,11.05c33.76,1.9,61.38,0.04,61.68-4.16
			c0.3-4.22-26.83-9.16-60.59-11.06C84.66,215.54,57.05,217.4,56.75,221.62z"/>
		<path class="st2" d="M61.16,221.87c-0.28,3.9,24.88,8.48,56.21,10.25c31.32,1.76,56.94,0.03,57.22-3.86
			c0.28-3.91-24.89-8.49-56.21-10.25C87.05,216.24,61.43,217.96,61.16,221.87z"/>
		<path class="st2" d="M64.47,222.05c-0.26,3.67,23.44,7.99,52.93,9.65c29.49,1.66,53.62,0.03,53.88-3.64
			c0.27-3.68-23.43-8-52.93-9.66C88.86,216.74,64.73,218.38,64.47,222.05z"/>
		<path class="st2" d="M66.68,222.18c-0.25,3.51,22.46,7.66,50.73,9.25c28.27,1.59,51.4,0.03,51.65-3.48
			c0.25-3.53-22.46-7.66-50.73-9.26C90.06,217.1,66.94,218.65,66.68,222.18z"/>
		<path class="st2" d="M68.9,222.3c-0.24,3.37,21.49,7.34,48.53,8.86c27.05,1.52,49.17,0.02,49.41-3.35
			c0.24-3.37-21.49-7.34-48.53-8.86C91.26,217.44,69.14,218.93,68.9,222.3z"/>
		<path class="st2" d="M71.29,222.44c-0.23,3.21,20.44,6.96,46.16,8.41c25.73,1.45,46.76,0.04,47-3.17
			c0.23-3.21-20.43-6.98-46.16-8.42C92.57,217.81,71.53,219.23,71.29,222.44z"/>
		<path class="st2" d="M75.72,222.69c-0.21,2.89,18.49,6.3,41.78,7.61c23.28,1.31,42.32,0.03,42.53-2.87
			c0.21-2.91-18.5-6.32-41.78-7.62C94.97,218.5,75.93,219.78,75.72,222.69z"/>
		<path class="st2" d="M68.35,222.06c-0.24,3.29,21,7.16,47.46,8.65c26.43,1.49,48.05,0.03,48.29-3.26
			c0.24-3.29-21.01-7.16-47.44-8.65C90.21,217.31,68.59,218.76,68.35,222.06z"/>
		<path class="st2" d="M69.86,222.14c-0.23,3.2,20.33,6.95,45.96,8.39c25.6,1.44,46.54,0.03,46.77-3.17
			c0.23-3.19-20.33-6.95-45.94-8.39C91.03,217.53,70.09,218.95,69.86,222.14z"/>
		<path class="st2" d="M72.11,222.27c-0.22,3.04,19.36,6.61,43.73,7.98c24.37,1.37,44.29,0.02,44.51-3.01
			c0.22-3.03-19.35-6.61-43.72-7.98C92.26,217.88,72.33,219.24,72.11,222.27z"/>
		<path class="st2" d="M73.6,222.35c-0.21,2.93,18.7,6.39,42.25,7.72c23.54,1.32,42.78,0.01,42.99-2.92
			c0.21-2.93-18.69-6.38-42.23-7.7C93.07,218.12,73.82,219.42,73.6,222.35z"/>
		<path class="st2" d="M75.84,222.62c-0.2,2.85,18.22,6.22,41.14,7.51c22.92,1.29,41.66,0.01,41.86-2.84
			c0.2-2.85-18.21-6.22-41.12-7.51C94.8,218.49,76.04,219.77,75.84,222.62z"/>
		<path class="st2" d="M78.84,222.79c-0.19,2.65,16.89,5.77,38.16,6.96c21.26,1.2,38.65,0.02,38.84-2.63
			c0.19-2.65-16.89-5.76-38.15-6.95C96.42,218.97,79.03,220.14,78.84,222.79z"/>
		<path class="st2" d="M81.09,222.91c-0.18,2.5,15.91,5.43,35.94,6.56c20.01,1.13,36.39,0.02,36.57-2.48
			c0.18-2.5-15.91-5.42-35.92-6.55C97.64,219.32,81.27,220.42,81.09,222.91z"/>
		<path class="st2" d="M82.59,223c-0.17,2.4,15.25,5.19,34.44,6.28c19.19,1.08,34.88,0.04,35.05-2.36
			c0.17-2.39-15.24-5.2-34.43-6.28C98.46,219.56,82.77,220.61,82.59,223z"/>
		<path class="st2" d="M84.1,223.08c-0.16,2.28,14.59,4.99,32.95,6.03c18.35,1.03,33.38,0,33.55-2.28
			c0.16-2.29-14.6-4.98-32.95-6.02C99.29,219.78,84.26,220.8,84.1,223.08z"/>
		<path class="st2" d="M85.73,223.18c-0.16,2.18,13.87,4.74,31.33,5.72c17.45,0.98,31.75,0.02,31.91-2.16
			c0.16-2.17-13.89-4.73-31.34-5.72C100.17,220.04,85.89,221,85.73,223.18z"/>
		<path class="st2" d="M88.73,223.34c-0.14,1.97,12.56,4.29,28.37,5.18c15.79,0.89,28.74,0.01,28.88-1.95
			c0.14-1.97-12.57-4.29-28.36-5.18C101.8,220.5,88.87,221.37,88.73,223.34z"/>
		<path class="st2" d="M84.84,222.99c-0.16,2.17,13.77,4.7,31.12,5.68c17.32,0.97,31.5,0.02,31.66-2.15
			c0.15-2.16-13.77-4.69-31.09-5.67C99.17,219.87,84.99,220.83,84.84,222.99z"/>
		<path class="st2" d="M85.82,223.04c-0.15,2.09,13.34,4.55,30.14,5.5c16.78,0.94,30.52,0.02,30.67-2.07
			c0.15-2.09-13.34-4.55-30.12-5.49C99.7,220.03,85.97,220.95,85.82,223.04z"/>
		<path class="st2" d="M87.3,223.12c-0.14,1.99,12.7,4.34,28.68,5.23c15.96,0.9,29.03,0.01,29.18-1.98
			c0.14-1.99-12.69-4.33-28.66-5.23C100.51,220.25,87.44,221.14,87.3,223.12z"/>
		<path class="st2" d="M88.27,223.18c-0.14,1.92,12.27,4.19,27.72,5.06c15.41,0.87,28.06,0,28.2-1.92
			c0.14-1.92-12.28-4.19-27.7-5.05C101.04,220.4,88.41,221.26,88.27,223.18z"/>
		<path class="st2" d="M89.74,223.36c-0.13,1.86,11.94,4.08,26.98,4.92c15.02,0.84,27.32,0,27.45-1.86
			c0.13-1.89-11.95-4.08-26.97-4.93C102.17,220.65,89.88,221.48,89.74,223.36z"/>
		<path class="st2" d="M91.71,223.47c-0.12,1.74,11.08,3.77,25.03,4.55c13.93,0.78,25.35,0.03,25.47-1.71
			c0.12-1.75-11.08-3.79-25.02-4.57C103.24,220.96,91.84,221.73,91.71,223.47z"/>
		<path class="st2" d="M93.19,223.56c-0.12,1.63,10.43,3.56,23.56,4.29c13.12,0.74,23.85,0.01,23.97-1.62
			c0.12-1.64-10.43-3.56-23.54-4.3C104.05,221.19,93.31,221.92,93.19,223.56z"/>
		<path class="st2" d="M94.17,223.61c-0.12,1.57,10.01,3.4,22.6,4.11c12.57,0.71,22.87,0.02,22.98-1.55
			c0.11-1.58-10-3.42-22.58-4.12C104.59,221.34,94.28,222.04,94.17,223.61z"/>
		<path class="st2" d="M95.16,223.67c-0.11,1.49,9.57,3.26,21.61,3.94c12.03,0.68,21.88,0.01,21.98-1.48
			c0.11-1.5-9.56-3.27-21.59-3.94C105.11,221.5,95.27,222.17,95.16,223.67z"/>
		<path class="st2" d="M96.22,223.73c-0.1,1.41,9.11,3.1,20.56,3.74c11.44,0.64,20.81,0.01,20.91-1.41c0.1-1.43-9.1-3.11-20.54-3.76
			C105.7,221.66,96.32,222.3,96.22,223.73z"/>
		<path class="st2" d="M98.19,223.84c-0.09,1.28,8.24,2.79,18.61,3.38c10.36,0.58,18.83,0.02,18.92-1.27
			c0.09-1.3-8.22-2.81-18.58-3.4C106.77,221.97,98.29,222.54,98.19,223.84z"/>
	</g>
	<g>
		<path class="st0" d="M7.08,131.4c0,8.06,52.49,14.6,117.25,14.6c64.73,0,117.23-6.54,117.23-14.6c0-8.06-52.5-14.59-117.23-14.59
			C59.57,116.81,7.08,123.34,7.08,131.4z"/>
		<path class="st1" d="M11.82,131.4c0,7.74,50.36,14,112.5,14c62.12,0,112.48-6.27,112.48-14c0-7.73-50.36-14-112.48-14
			C62.18,117.4,11.82,123.67,11.82,131.4z"/>
		<path class="st2" d="M16.55,131.4c0,7.42,48.25,13.43,107.78,13.43c59.51,0,107.75-6.01,107.75-13.43
			c0-7.41-48.24-13.42-107.75-13.42C64.8,117.98,16.55,123.99,16.55,131.4z"/>
		<path class="st2" d="M19.93,131.4c0,7.18,46.73,13,104.39,13c57.63,0,104.36-5.82,104.36-13c0-7.17-46.73-12.99-104.36-12.99
			C66.66,118.4,19.93,124.22,19.93,131.4z"/>
		<path class="st2" d="M25.01,131.4c0,6.84,44.45,12.36,99.32,12.36c54.85,0,99.3-5.53,99.3-12.36c0-6.82-44.45-12.37-99.3-12.37
			C69.46,119.03,25.01,124.57,25.01,131.4z"/>
		<path class="st2" d="M28.37,131.4c0,6.6,42.95,11.95,95.96,11.95c52.98,0,95.93-5.35,95.93-11.95c0-6.59-42.96-11.95-95.93-11.95
			C71.32,119.45,28.37,124.8,28.37,131.4z"/>
		<path class="st2" d="M33.43,131.72c0,6.42,41.82,11.63,93.43,11.63c51.58,0,93.4-5.21,93.4-11.63c0-6.43-41.82-11.63-93.4-11.63
			C75.25,120.09,33.43,125.29,33.43,131.72z"/>
		<path class="st2" d="M40.19,131.72c0,5.96,38.79,10.79,86.67,10.79c47.85,0,86.66-4.83,86.66-10.79c0-5.97-38.8-10.8-86.66-10.8
			C78.98,120.92,40.19,125.75,40.19,131.72z"/>
		<path class="st2" d="M45.24,131.72c0,5.61,36.54,10.16,81.62,10.16c45.06,0,81.59-4.54,81.59-10.16
			c0-5.62-36.53-10.17-81.59-10.17C81.78,121.55,45.24,126.1,45.24,131.72z"/>
		<path class="st2" d="M48.63,131.72c0,5.38,35.02,9.74,78.23,9.74c43.19,0,78.21-4.36,78.21-9.74c0-5.39-35.01-9.74-78.21-9.74
			C83.65,121.98,48.63,126.33,48.63,131.72z"/>
		<path class="st2" d="M52.02,131.72c0,5.14,33.49,9.32,74.84,9.32c41.32,0,74.82-4.18,74.82-9.32c0-5.15-33.5-9.33-74.82-9.33
			C85.51,122.39,52.02,126.57,52.02,131.72z"/>
		<path class="st2" d="M55.67,131.72c0,4.89,31.87,8.85,71.19,8.85c39.29,0,71.16-3.96,71.16-8.85c0-4.91-31.87-8.87-71.16-8.87
			C87.54,122.85,55.67,126.82,55.67,131.72z"/>
		<path class="st2" d="M62.43,131.72c0,4.43,28.84,8.01,64.43,8.01c35.56,0,64.39-3.59,64.39-8.01c0-4.44-28.84-8.03-64.39-8.03
			C91.28,123.69,62.43,127.28,62.43,131.72z"/>
		<path class="st2" d="M53.66,131.4c0,4.86,31.64,8.8,70.67,8.8c39.02,0,70.66-3.95,70.66-8.8c0-4.85-31.63-8.79-70.66-8.79
			C85.29,122.61,53.66,126.54,53.66,131.4z"/>
		<path class="st2" d="M55.86,131.4c0,4.71,30.65,8.53,68.46,8.53c37.78,0,68.43-3.82,68.43-8.53c0-4.71-30.65-8.52-68.43-8.52
			C86.51,122.88,55.86,126.69,55.86,131.4z"/>
		<path class="st2" d="M59.19,131.4c0,4.48,29.15,8.11,65.14,8.11c35.97,0,65.11-3.63,65.11-8.11c0-4.48-29.14-8.1-65.11-8.1
			C88.34,123.3,59.19,126.92,59.19,131.4z"/>
		<path class="st2" d="M61.4,131.4c0,4.34,28.17,7.83,62.93,7.83c34.74,0,62.91-3.5,62.91-7.83c0-4.33-28.17-7.83-62.91-7.83
			C89.57,123.57,61.4,127.07,61.4,131.4z"/>
		<path class="st2" d="M64.72,131.61c0,4.21,27.43,7.62,61.25,7.62c33.83,0,61.26-3.41,61.26-7.62c0-4.23-27.44-7.64-61.26-7.64
			C92.15,123.97,64.72,127.39,64.72,131.61z"/>
		<path class="st2" d="M69.14,131.61c0,3.91,25.44,7.07,56.83,7.07c31.38,0,56.83-3.16,56.83-7.07c0-3.91-25.45-7.07-56.83-7.07
			C94.59,124.54,69.14,127.7,69.14,131.61z"/>
		<path class="st2" d="M72.46,131.61c0,3.68,23.96,6.66,53.51,6.66c29.55,0,53.51-2.98,53.51-6.66c0-3.69-23.96-6.67-53.51-6.67
			C96.42,124.94,72.46,127.93,72.46,131.61z"/>
		<path class="st2" d="M74.69,131.61c0,3.52,22.96,6.38,51.29,6.38c28.32,0,51.29-2.86,51.29-6.38c0-3.53-22.97-6.39-51.29-6.39
			C97.65,125.23,74.69,128.08,74.69,131.61z"/>
		<path class="st2" d="M76.9,131.61c0,3.37,21.97,6.12,49.07,6.12c27.1,0,49.07-2.74,49.07-6.12c0-3.38-21.97-6.11-49.07-6.11
			C98.87,125.5,76.9,128.24,76.9,131.61z"/>
		<path class="st2" d="M79.31,131.61c0,3.21,20.9,5.8,46.67,5.8c25.78,0,46.67-2.59,46.67-5.8c0-3.21-20.89-5.81-46.67-5.81
			C100.2,125.8,79.31,128.4,79.31,131.61z"/>
		<path class="st2" d="M83.74,131.61c0,2.9,18.91,5.25,42.24,5.25c23.32,0,42.24-2.35,42.24-5.25c0-2.92-18.91-5.26-42.24-5.26
			C102.65,126.35,83.74,128.7,83.74,131.61z"/>
		<path class="st2" d="M76.34,131.4c0,3.3,21.47,5.97,47.98,5.97c26.48,0,47.96-2.67,47.96-5.97c0-3.3-21.48-5.97-47.96-5.97
			C97.81,125.43,76.34,128.1,76.34,131.4z"/>
		<path class="st2" d="M77.85,131.4c0,3.2,20.79,5.79,46.47,5.79c25.65,0,46.44-2.59,46.44-5.79c0-3.2-20.79-5.79-46.44-5.79
			C98.64,125.61,77.85,128.2,77.85,131.4z"/>
		<path class="st2" d="M80.11,131.4c0,3.04,19.79,5.51,44.22,5.51c24.42,0,44.2-2.46,44.2-5.51c0-3.04-19.78-5.51-44.2-5.51
			C99.9,125.89,80.11,128.36,80.11,131.4z"/>
		<path class="st2" d="M81.6,131.4c0,2.94,19.12,5.33,42.72,5.33c23.58,0,42.7-2.39,42.7-5.33c0-2.94-19.11-5.32-42.7-5.32
			C100.72,126.08,81.6,128.46,81.6,131.4z"/>
		<path class="st2" d="M83.85,131.54c0,2.86,18.63,5.19,41.59,5.19c22.96,0,41.58-2.33,41.58-5.19c0-2.85-18.62-5.18-41.58-5.18
			C102.48,126.36,83.85,128.68,83.85,131.54z"/>
		<path class="st2" d="M86.86,131.54c0,2.66,17.27,4.81,38.58,4.81c21.3,0,38.57-2.15,38.57-4.81c0-2.65-17.27-4.8-38.57-4.8
			C104.13,126.74,86.86,128.89,86.86,131.54z"/>
		<path class="st2" d="M89.11,131.54c0,2.51,16.26,4.53,36.33,4.53c20.05,0,36.32-2.02,36.32-4.53c0-2.5-16.27-4.52-36.32-4.52
			C105.38,127.02,89.11,129.04,89.11,131.54z"/>
		<path class="st2" d="M90.62,131.54c0,2.41,15.59,4.33,34.83,4.33c19.23,0,34.81-1.92,34.81-4.33c0-2.39-15.59-4.33-34.81-4.33
			C106.21,127.21,90.62,129.15,90.62,131.54z"/>
		<path class="st2" d="M92.13,131.54c0,2.29,14.92,4.16,33.32,4.16c18.39,0,33.32-1.87,33.32-4.16c0-2.29-14.93-4.15-33.32-4.15
			C107.05,127.39,92.13,129.25,92.13,131.54z"/>
		<path class="st2" d="M93.77,131.54c0,2.19,14.19,3.95,31.68,3.95c17.49,0,31.69-1.76,31.69-3.95c0-2.18-14.2-3.94-31.69-3.94
			C107.95,127.6,93.77,129.36,93.77,131.54z"/>
		<path class="st2" d="M96.77,131.54c0,1.97,12.84,3.57,28.68,3.57c15.82,0,28.67-1.6,28.67-3.57c0-1.97-12.85-3.57-28.67-3.57
			C109.61,127.96,96.77,129.56,96.77,131.54z"/>
		<path class="st2" d="M92.86,131.4c0,2.17,14.08,3.92,31.47,3.92c17.35,0,31.44-1.75,31.44-3.92c0-2.16-14.08-3.91-31.44-3.91
			C106.94,127.49,92.86,129.24,92.86,131.4z"/>
		<path class="st2" d="M93.85,131.4c0,2.1,13.63,3.79,30.48,3.79c16.81,0,30.46-1.69,30.46-3.79c0-2.1-13.64-3.79-30.46-3.79
			C107.48,127.61,93.85,129.3,93.85,131.4z"/>
		<path class="st2" d="M95.33,131.4c0,1.99,12.98,3.61,29,3.61c16,0,28.98-1.62,28.98-3.61c0-1.99-12.98-3.61-28.98-3.61
			C108.31,127.79,95.33,129.41,95.33,131.4z"/>
		<path class="st2" d="M96.3,131.4c0,1.92,12.55,3.5,28.03,3.5c15.45,0,28-1.57,28-3.5c0-1.93-12.55-3.49-28-3.49
			C108.85,127.91,96.3,129.47,96.3,131.4z"/>
		<path class="st2" d="M97.78,131.5c0,1.86,12.21,3.4,27.28,3.4c15.05,0,27.27-1.53,27.27-3.4c0-1.89-12.22-3.41-27.27-3.41
			C110,128.1,97.78,129.61,97.78,131.5z"/>
		<path class="st2" d="M99.76,131.5c0,1.74,11.32,3.14,25.3,3.14c13.96,0,25.3-1.4,25.3-3.14c0-1.75-11.34-3.16-25.3-3.16
			C111.08,128.34,99.76,129.75,99.76,131.5z"/>
		<path class="st2" d="M101.24,131.5c0,1.64,10.66,2.96,23.82,2.96c13.15,0,23.81-1.33,23.81-2.96c0-1.64-10.66-2.97-23.81-2.97
			C111.9,128.53,101.24,129.86,101.24,131.5z"/>
		<path class="st2" d="M102.22,131.5c0,1.57,10.24,2.83,22.84,2.83c12.6,0,22.83-1.26,22.83-2.83c0-1.58-10.23-2.85-22.83-2.85
			C112.45,128.65,102.22,129.92,102.22,131.5z"/>
		<path class="st2" d="M103.21,131.5c0,1.5,9.78,2.71,21.85,2.71c12.05,0,21.83-1.22,21.83-2.71c0-1.51-9.78-2.73-21.83-2.73
			C112.99,128.78,103.21,129.99,103.21,131.5z"/>
		<path class="st2" d="M104.27,131.5c0,1.42,9.31,2.58,20.79,2.58c11.47,0,20.77-1.16,20.77-2.58c0-1.43-9.3-2.6-20.77-2.6
			C113.58,128.9,104.27,130.07,104.27,131.5z"/>
		<path class="st2" d="M106.25,131.5c0,1.29,8.42,2.33,18.81,2.33c10.39,0,18.79-1.04,18.79-2.33c0-1.3-8.41-2.35-18.79-2.35
			C114.67,129.15,106.25,130.2,106.25,131.5z"/>
	</g>
	<g>
		
			<linearGradient id="SVGID_1_" gradientUnits="userSpaceOnUse" x1="-2003.5996" y1="-2123.9207" x2="-1904.5259" y2="-2123.9207" gradientTransform="matrix(0.2448 0.9696 0.9696 -0.2448 2818.4026 1529.4921)">
			<stop  offset="0" style="stop-color:#B2B2B2"/>
			<stop  offset="0.5394" style="stop-color:#F6F6F6"/>
			<stop  offset="1" style="stop-color:#DCDCDC"/>
		</linearGradient>
		<path class="st3" d="M193.99,125.57l96.26-21.63c28.95-6.47,58.36,9.06,65.67,34.68c7.31,25.63-10.24,51.66-39.2,58.12
			l-96.25,21.64L193.99,125.57z"/>
		<g>
			
				<linearGradient id="SVGID_00000146463354105630574700000005641795171064227760_" gradientUnits="userSpaceOnUse" x1="5869.3916" y1="-11532.3711" x2="5816.8525" y2="-11518.0996" gradientTransform="matrix(0.824 0.5666 0.5666 -0.824 1960.9915 -12659.8418)">
				<stop  offset="0" style="stop-color:#3AAA35"/>
				<stop  offset="0.497" style="stop-color:#95C11F"/>
				<stop  offset="1" style="stop-color:#3AAA35"/>
			</linearGradient>
			<path style="fill:url(#SVGID_00000146463354105630574700000005641795171064227760_);" d="M208.48,176.52
				c0,0-2.03-15.09-1.28-21.76l0.87,1.53c0,0,2.16-10.09,3.88-13.73l0.5,1.94c0,0,5.6-9.2,9.75-12.37l-0.33,1.86
				c0,0,8.05-8.64,12.33-9.48l-1.42,2.77c0,0,8.25-4.53,13.61-6.14l-1.85,1.99c0,0,7.69-3.09,10.38-3.53l-1.93,1.9
				c0,0,7.65-2.62,11.57-2.99l-2.25,1.57c0,0,7.42-2.01,11.11-1.77l-1.88,1.29l11.95,0.26c0,0-0.57,5.76-1.07,8.54l1.13-0.86
				c0,0-1.81,5.55-2.99,9.59l2.07-1.58c0,0-2.91,7.16-6.27,13.43l3.26-2.48c0,0-5.22,7.46-8.48,11.58l2.55-1.95
				c0,0-7.72,9.99-12.8,12.53l3.86-1.2c0,0-5.44,4.37-11.91,6.06l2.97,0.76c0,0-8.28,1.91-13.5,2.9c0,0,2.94,0.62,4.06,1.08
				c0,0-9.47,0.28-14.35,0.44l1.72,1.31C233.7,179.99,215.66,178.81,208.48,176.52z"/>
			<defs>
				<filter id="Adobe_OpacityMaskFilter" filterUnits="userSpaceOnUse" x="206.96" y="118.35" width="76.51" height="58.17">
					<feFlood  style="flood-color:white;flood-opacity:1" result="back"/>
					<feBlend  in="SourceGraphic" in2="back" mode="normal"/>
				</filter>
			</defs>
			
				<mask maskUnits="userSpaceOnUse" x="206.96" y="118.35" width="76.51" height="58.17" id="SVGID_00000169555123578909797480000002275698434264516232_">
				<g class="st5">
					<defs>
						
							<filter id="Adobe_OpacityMaskFilter_00000042716651242947524650000008484498011704638907_" filterUnits="userSpaceOnUse" x="206.96" y="118.35" width="76.51" height="58.17">
							<feFlood  style="flood-color:white;flood-opacity:1" result="back"/>
							<feBlend  in="SourceGraphic" in2="back" mode="normal"/>
						</filter>
					</defs>
					
						<mask maskUnits="userSpaceOnUse" x="206.96" y="118.35" width="76.51" height="58.17" id="SVGID_00000169555123578909797480000002275698434264516232_">
					</mask>
					
						<linearGradient id="SVGID_00000177442909194112258740000016970797757142125988_" gradientUnits="userSpaceOnUse" x1="-7323.6064" y1="8875.9658" x2="-7297.2393" y2="8875.9658" gradientTransform="matrix(-0.6467 -0.7627 -0.7627 0.6467 2279.229 -11177.9238)">
						<stop  offset="0" style="stop-color:#999999"/>
						<stop  offset="0.2731" style="stop-color:#676767"/>
						<stop  offset="0.6115" style="stop-color:#303030"/>
						<stop  offset="0.864" style="stop-color:#0D0D0D"/>
						<stop  offset="1" style="stop-color:#000000"/>
					</linearGradient>
					
						<path style="mask:url(#SVGID_00000169555123578909797480000002275698434264516232_);fill:url(#SVGID_00000177442909194112258740000016970797757142125988_);" d="
						M212.36,144.56c0,0,5.6-9.2,9.75-12.38l-0.33,1.86c0,0,8.04-8.63,12.33-9.48l-1.42,2.77c0,0,8.25-4.54,13.6-6.14l-1.84,1.99
						c0,0,7.68-3.08,10.38-3.54l-1.92,1.91c0,0,7.64-2.63,11.57-2.99l-2.26,1.57c0,0,7.42-2.02,11.12-1.77l-1.88,1.29l12.03,0.2
						l-0.5,0.33c0,0-16.72,10.24-21.2,15.01c-10.31,10.98-28.29,24.59-33.48,28.34l-19.8,12.99c-0.31-2.45-2.04-15.67-1.37-21.7
						l0.87,1.53c0,0,2.15-10.09,3.88-13.73L212.36,144.56z"/>
				</g>
			</mask>
			
				<linearGradient id="SVGID_00000022538833892772569360000012769583506445686454_" gradientUnits="userSpaceOnUse" x1="-7323.6064" y1="8875.9658" x2="-7297.2393" y2="8875.9658" gradientTransform="matrix(-0.6467 -0.7627 -0.7627 0.6467 2279.229 -11177.9238)">
				<stop  offset="0" style="stop-color:#95C11F"/>
				<stop  offset="0.321" style="stop-color:#B3CC06"/>
				<stop  offset="0.7616" style="stop-color:#D3D800"/>
				<stop  offset="1" style="stop-color:#DEDC00"/>
			</linearGradient>
			<path style="fill:url(#SVGID_00000022538833892772569360000012769583506445686454_);" d="M212.36,144.56c0,0,5.6-9.2,9.75-12.38
				l-0.33,1.86c0,0,8.04-8.63,12.33-9.48l-1.42,2.77c0,0,8.25-4.54,13.6-6.14l-1.84,1.99c0,0,7.68-3.08,10.38-3.54l-1.92,1.91
				c0,0,7.64-2.63,11.57-2.99l-2.26,1.57c0,0,7.42-2.02,11.12-1.77l-1.88,1.29l12.03,0.2l-0.5,0.33c0,0-16.72,10.24-21.2,15.01
				c-10.31,10.98-28.29,24.59-33.48,28.34l-19.8,12.99c-0.31-2.45-2.04-15.67-1.37-21.7l0.87,1.53c0,0,2.15-10.09,3.88-13.73
				L212.36,144.56z"/>
			<g class="st9">
				<path class="st10" d="M217.22,148.1c1.65,19.37-8.8,28.09-8.8,28.09l1.88-1.3l-1.94,1.51c0,0,11.71-7.46,34.14-1.84
					c0,0-10.85-5.21-26.32-2.77c0,0,7.34-6.29,37.13-4.84c0,0-23.17-1.3-29.79-1.44l0.46-0.32c2.91-1.14,20.7-5.21,33.64-3.27
					c0,0-12.89-4.15-26.4-0.52c0,0,14.01-7.94,32.05-6.55c0,0-10.92-3.15-27.8,2.1c4.48-2.44,16.31-7.55,35.3-6.63
					c0,0-19.26-1.08-24.75-1.2l0.38-0.26c2.41-0.95,17.2-4.33,27.96-2.72c0,0-10.72-3.45-21.95-0.43c0,0,11.65-6.6,26.64-5.45
					c0,0-8.2-2.36-21.04,1.14c2.55-2.96,11.78-13.56,25.44-21.26l0.03-0.28l-0.45-0.01c0,0-16.81,9.13-24.7,17.5
					c4.16-8.17,2.79-14.31,2.79-14.31c0.71,8.01-10.18,21.01-10.18,21.01c0.31-0.86,1.84-12.82,3.36-19.06
					c-0.15,0.59-6.7,20.81-8.29,22.86l-0.53,0.42c0.93-4.67,3.99-20.22,3.99-20.22c-2.73,11.46-8.6,20.6-12.41,25.64
					c6.57-10.98,4.66-19.57,4.66-19.57c0.87,9.65-12.24,25.28-12.24,25.28c0.37-1.03,4.5-18.02,4.85-24.65
					c-0.33,6.24-8.88,26.76-10.8,29.22l-0.64,0.5c1.12-5.61,4.8-24.32,4.8-24.32c-5.09,21.37-13.14,30.75-13.14,30.75
					C220.27,158.38,217.22,148.1,217.22,148.1z M234.76,157.09l0.26-0.17l-0.29,0.23C234.74,157.12,234.75,157.11,234.76,157.09z"/>
			</g>
		</g>
		<g>
			
				<linearGradient id="SVGID_00000039127684025480307370000017106082106863082880_" gradientUnits="userSpaceOnUse" x1="10416.9277" y1="-6030.0786" x2="10364.9277" y2="-6015.9546" gradientTransform="matrix(0.3542 0.9352 0.9352 -0.3542 2238.1536 -11685.2783)">
				<stop  offset="0" style="stop-color:#3AAA35"/>
				<stop  offset="0.497" style="stop-color:#95C11F"/>
				<stop  offset="1" style="stop-color:#3AAA35"/>
			</linearGradient>
			<path style="fill:url(#SVGID_00000039127684025480307370000017106082106863082880_);" d="M234.53,170.79
				c0,0,8.44-14.06,13.59-19.42l-0.29,1.78c0,0,8.67-7.56,12.61-9.78l-0.88,1.93c0,0,11.03-4.97,16.75-5.5l-1.54,1.42
				c0,0,12.76-3.19,17.02-1.65l-3.1,1.64c0,0,10.17,0.46,15.87,1.91l-2.94,0.74c0,0,8.7,1.41,11.32,2.45l-2.95,0.62
				c0,0,8.36,1.78,11.98,3.54l-3,0.16c0,0,7.75,2.19,10.77,4.35l-2.49,0.11l10.11,6.54c0,0-4.38,4.66-6.68,6.78l1.55-0.14
				c0,0-5.3,3.82-9.05,6.68l2.84-0.27c0,0-7.34,4.63-14.47,8.25l4.49-0.41c0,0-9.53,3.66-15.12,5.48l3.51-0.33
				c0,0-13.39,4.53-19.49,4.02l4.14,1c0,0-7.63,0.89-14.35-1.08l2.05,2.22c0,0-8.42-2.73-13.58-4.64c0,0,2.11,2.09,2.76,3.07
				c0,0-8.34-4.77-12.65-7.2l0.6,2.04C253.91,187.11,239.17,176.55,234.53,170.79z"/>
			<defs>
				
					<filter id="Adobe_OpacityMaskFilter_00000132051523776719110080000012748925760851415220_" filterUnits="userSpaceOnUse" x="234.53" y="139.16" width="102.84" height="31.63">
					<feFlood  style="flood-color:white;flood-opacity:1" result="back"/>
					<feBlend  in="SourceGraphic" in2="back" mode="normal"/>
				</filter>
			</defs>
			
				<mask maskUnits="userSpaceOnUse" x="234.53" y="139.16" width="102.84" height="31.63" id="SVGID_00000155138224662498888510000013895308156493514421_">
				<g style="filter:url(#Adobe_OpacityMaskFilter_00000132051523776719110080000012748925760851415220_);">
					<defs>
						
							<filter id="Adobe_OpacityMaskFilter_00000071551937624092659280000006519696649735523981_" filterUnits="userSpaceOnUse" x="234.53" y="139.16" width="102.84" height="31.63">
							<feFlood  style="flood-color:white;flood-opacity:1" result="back"/>
							<feBlend  in="SourceGraphic" in2="back" mode="normal"/>
						</filter>
					</defs>
					
						<mask maskUnits="userSpaceOnUse" x="234.53" y="139.16" width="102.84" height="31.63" id="SVGID_00000155138224662498888510000013895308156493514421_">
					</mask>
					
						<linearGradient id="SVGID_00000183215609085686549520000007273703397324571570_" gradientUnits="userSpaceOnUse" x1="-10269.2754" y1="2373.5881" x2="-10244.2979" y2="2373.5881" gradientTransform="matrix(-0.0968 -0.9953 -0.9953 0.0968 1654.1768 -10285.9746)">
						<stop  offset="0" style="stop-color:#999999"/>
						<stop  offset="0.2731" style="stop-color:#676767"/>
						<stop  offset="0.6115" style="stop-color:#303030"/>
						<stop  offset="0.864" style="stop-color:#0D0D0D"/>
						<stop  offset="1" style="stop-color:#000000"/>
					</linearGradient>
					
						<path style="mask:url(#SVGID_00000155138224662498888510000013895308156493514421_);fill:url(#SVGID_00000183215609085686549520000007273703397324571570_);" d="
						M259.44,145.31c0,0,11.03-4.97,16.75-5.51l-1.53,1.43c0,0,12.76-3.19,17.02-1.65l-3.1,1.64c0,0,10.17,0.45,15.86,1.9
						l-2.93,0.74c0,0,8.7,1.4,11.32,2.44l-2.94,0.63c0,0,8.36,1.78,11.98,3.54l-3.01,0.16c0,0,7.75,2.19,10.77,4.35l-2.49,0.11
						l10.23,6.53l-0.64,0.02c0,0-21.31-0.03-28.4,1.72c-16.29,4.01-40.97,6.23-47.97,6.71l-25.83,0.72
						c1.38-2.27,8.82-14.57,13.47-19.41l-0.29,1.78c0,0,8.66-7.56,12.61-9.78L259.44,145.31z"/>
				</g>
			</mask>
			
				<linearGradient id="SVGID_00000163776215414428848900000015490719380799153825_" gradientUnits="userSpaceOnUse" x1="-10269.2754" y1="2373.5881" x2="-10244.2979" y2="2373.5881" gradientTransform="matrix(-0.0968 -0.9953 -0.9953 0.0968 1654.1768 -10285.9746)">
				<stop  offset="0" style="stop-color:#95C11F"/>
				<stop  offset="0.321" style="stop-color:#B3CC06"/>
				<stop  offset="0.7616" style="stop-color:#D3D800"/>
				<stop  offset="1" style="stop-color:#DEDC00"/>
			</linearGradient>
			<path style="fill:url(#SVGID_00000163776215414428848900000015490719380799153825_);" d="M259.44,145.31
				c0,0,11.03-4.97,16.75-5.51l-1.53,1.43c0,0,12.76-3.19,17.02-1.65l-3.1,1.64c0,0,10.17,0.45,15.86,1.9l-2.93,0.74
				c0,0,8.7,1.4,11.32,2.44l-2.94,0.63c0,0,8.36,1.78,11.98,3.54l-3.01,0.16c0,0,7.75,2.19,10.77,4.35l-2.49,0.11l10.23,6.53
				l-0.64,0.02c0,0-21.31-0.03-28.4,1.72c-16.29,4.01-40.97,6.23-47.97,6.71l-25.83,0.72c1.38-2.27,8.82-14.57,13.47-19.41
				l-0.29,1.78c0,0,8.66-7.56,12.61-9.78L259.44,145.31z"/>
			<g class="st9">
				<path class="st10" d="M261.25,150.93c-11.65,17.56-26.54,19.54-26.54,19.54l2.5-0.13l-2.69,0.28c0,0,15.11-0.24,30.64,16.46
					c0,0-5.83-10.22-20.8-16.3c0,0,10.57-1.53,35.25,15.46c0,0-19.08-13.37-24.68-16.99l0.61-0.03c3.28,0.56,21.35,6.46,31.18,14.97
					c0,0-8.3-10.39-22.39-14.41c0,0,17.43,0.57,32.02,11.3c0,0-7.28-8.49-25.37-12.89c5.5,0.27,19.15,2.12,34.88,12.96
					c0,0-15.86-11.12-20.51-14.12l0.5-0.02c2.72,0.46,17.74,5.37,25.92,12.44c0,0-6.9-8.64-18.62-11.98c0,0,14.49,0.48,26.62,9.39
					c0,0-5.46-6.37-18.89-10.14c4.2-1.2,19.3-5.45,36.26-4.86l0.21-0.23l-0.38-0.25c0,0-20.64-1.02-33.09,2.02
					c9.1-4.84,12.07-10.85,12.07-10.85c-4.79,7.28-22.95,12.72-22.95,12.72c0.84-0.58,10.24-10.06,15.76-14.65
					c-0.53,0.43-19.82,14.38-22.57,15.31l-0.74,0.08c3.95-3.53,17.08-15.31,17.08-15.31c-10.09,8.43-21.31,13.2-28.01,15.52
					c13.07-5.98,17.22-14.39,17.22-14.39c-5.77,8.77-27.61,15.31-27.61,15.31c1.01-0.69,16.04-13.15,20.82-18.67
					c-4.5,5.2-25.71,18.35-29.02,19.46l-0.88,0.09c4.75-4.25,20.55-18.41,20.55-18.41c-18.81,15.71-32.07,19.54-32.07,19.54
					C256.93,161.4,261.25,150.93,261.25,150.93z M270.28,167.95l0.34-0.01l-0.4,0.04C270.24,167.96,270.26,167.96,270.28,167.95z"/>
			</g>
		</g>
		
			<linearGradient id="SVGID_00000134942150296924798930000016864518253579004319_" gradientUnits="userSpaceOnUse" x1="-2301.8557" y1="1415.077" x2="-2400.9255" y2="1415.077" gradientTransform="matrix(-0.2448 -0.9696 -0.9696 0.2448 932.6447 -2437.5774)">
			<stop  offset="0" style="stop-color:#3AAA35"/>
			<stop  offset="0.497" style="stop-color:#95C11F"/>
			<stop  offset="1" style="stop-color:#3AAA35"/>
		</linearGradient>
		<path style="fill:url(#SVGID_00000134942150296924798930000016864518253579004319_);" d="M222.91,217.94l-96.26,21.64
			c-28.96,6.47-58.36-9.06-65.67-34.69c-7.31-25.63,10.24-51.65,39.2-58.12l96.25-21.64L222.91,217.94z"/>
	</g>
	<g>
		
			<linearGradient id="SVGID_00000161621094358771046990000002025543871734237857_" gradientUnits="userSpaceOnUse" x1="-914.5396" y1="4641.0234" x2="-817.7755" y2="4641.0234" gradientTransform="matrix(-0.0933 0.9957 -0.9957 -0.0933 4659.1138 1352.6888)">
			<stop  offset="0" style="stop-color:#B2B2B2"/>
			<stop  offset="0.5394" style="stop-color:#F6F6F6"/>
			<stop  offset="1" style="stop-color:#DCDCDC"/>
		</linearGradient>
		<path style="fill:url(#SVGID_00000161621094358771046990000002025543871734237857_);" d="M199.95,16.25l-98.87-8.32
			C71.35,5.46,44.98,24.8,42.19,51.11c-2.79,26.32,19.07,49.66,48.8,52.12l98.86,8.32L199.95,16.25z"/>
		<g>
			
				<linearGradient id="SVGID_00000121985960059210447490000002426209385031422351_" gradientUnits="userSpaceOnUse" x1="11155.1465" y1="-7173.0527" x2="11103.5811" y2="-7159.0464" gradientTransform="matrix(-0.7274 0.6862 -0.6862 -0.7274 3332.0234 -12800.5078)">
				<stop  offset="0" style="stop-color:#3AAA35"/>
				<stop  offset="0.497" style="stop-color:#95C11F"/>
				<stop  offset="1" style="stop-color:#3AAA35"/>
			</linearGradient>
			<path style="fill:url(#SVGID_00000121985960059210447490000002426209385031422351_);" d="M195.48,72.52c0,0-0.61-15.18-2.5-21.68
				l-0.59,1.63c0,0-3.88-9.68-6.21-13.04l-0.16,1.98c0,0-7.13-8.33-11.78-10.9l0.65,1.79c0,0-9.45-7.45-13.82-7.7l1.88,2.55
				c0,0-8.94-3.36-14.51-4.22l2.17,1.72c0,0-8.13-2.01-10.87-2.08l2.24,1.62c0,0-8.01-1.55-11.95-1.38l2.5,1.25
				c0,0-7.68-0.98-11.29-0.24l2.08,1.02l-11.76,1.88c0,0,1.56,5.61,2.54,8.29l-1.26-0.7c0,0,2.75,5.24,4.62,9.07l-2.31-1.28
				c0,0,4.12,6.68,8.53,12.42l-3.66-2.01c0,0,6.45,6.66,10.39,10.29l-2.86-1.58c0,0,9.36,8.83,14.82,10.65l-4.02-0.67
				c0,0,6.13,3.58,12.82,4.37l-2.8,1.15c0,0,8.51,0.76,13.84,1.04c0,0-2.8,1.01-3.82,1.61c0,0,9.41-1.01,14.25-1.51l-1.48,1.53
				C171.16,79.37,188.77,75.76,195.48,72.52z"/>
			<defs>
				
					<filter id="Adobe_OpacityMaskFilter_00000167367986791393652910000005602713818213697410_" filterUnits="userSpaceOnUse" x="111.57" y="22.61" width="83.91" height="49.91">
					<feFlood  style="flood-color:white;flood-opacity:1" result="back"/>
					<feBlend  in="SourceGraphic" in2="back" mode="normal"/>
				</filter>
			</defs>
			
				<mask maskUnits="userSpaceOnUse" x="111.57" y="22.61" width="83.91" height="49.91" id="SVGID_00000022519718358653697400000007142863773451181712_">
				<g style="filter:url(#Adobe_OpacityMaskFilter_00000167367986791393652910000005602713818213697410_);">
					<defs>
						
							<filter id="Adobe_OpacityMaskFilter_00000023989057082915710380000001972912203813990302_" filterUnits="userSpaceOnUse" x="111.57" y="22.61" width="83.91" height="49.91">
							<feFlood  style="flood-color:white;flood-opacity:1" result="back"/>
							<feBlend  in="SourceGraphic" in2="back" mode="normal"/>
						</filter>
					</defs>
					
						<mask maskUnits="userSpaceOnUse" x="111.57" y="22.61" width="83.91" height="49.91" id="SVGID_00000022519718358653697400000007142863773451181712_">
					</mask>
					
						<linearGradient id="SVGID_00000075846147061379825740000010730700177807364502_" gradientUnits="userSpaceOnUse" x1="-11281.9287" y1="3283.8367" x2="-11256.2539" y2="3283.8367" gradientTransform="matrix(0.5222 -0.8528 0.8528 0.5222 3244.8015 -11286.9482)">
						<stop  offset="0" style="stop-color:#999999"/>
						<stop  offset="0.2731" style="stop-color:#676767"/>
						<stop  offset="0.6115" style="stop-color:#303030"/>
						<stop  offset="0.864" style="stop-color:#0D0D0D"/>
						<stop  offset="1" style="stop-color:#000000"/>
					</linearGradient>
					
						<path style="mask:url(#SVGID_00000022519718358653697400000007142863773451181712_);fill:url(#SVGID_00000075846147061379825740000010730700177807364502_);" d="
						M186.11,41.47c0,0-7.12-8.34-11.77-10.91l0.65,1.79c0,0-9.44-7.44-13.83-7.7l1.88,2.55c0,0-8.94-3.37-14.5-4.23l2.17,1.72
						c0,0-8.12-2.01-10.87-2.09l2.23,1.63c0,0-8-1.56-11.95-1.39l2.5,1.25c0,0-7.68-0.98-11.29-0.24l2.08,1.02l-11.85,1.83
						l0.55,0.26c0,0,18.29,7.85,23.55,11.95c12.09,9.45,32.21,20.46,38,23.46l21.82,10.15c-0.12-2.46-0.7-15.76-2.41-21.62
						l-0.59,1.63c0,0-3.87-9.68-6.21-13.04L186.11,41.47z"/>
				</g>
			</mask>
			
				<linearGradient id="SVGID_00000148645982720374811960000000716464148627208839_" gradientUnits="userSpaceOnUse" x1="-11281.9287" y1="3283.8367" x2="-11256.2539" y2="3283.8367" gradientTransform="matrix(0.5222 -0.8528 0.8528 0.5222 3244.8015 -11286.9482)">
				<stop  offset="0" style="stop-color:#95C11F"/>
				<stop  offset="0.321" style="stop-color:#B3CC06"/>
				<stop  offset="0.7616" style="stop-color:#D3D800"/>
				<stop  offset="1" style="stop-color:#DEDC00"/>
			</linearGradient>
			<path style="fill:url(#SVGID_00000148645982720374811960000000716464148627208839_);" d="M186.11,41.47
				c0,0-7.12-8.34-11.77-10.91l0.65,1.79c0,0-9.44-7.44-13.83-7.7l1.88,2.55c0,0-8.94-3.37-14.5-4.23l2.17,1.72
				c0,0-8.12-2.01-10.87-2.09l2.23,1.63c0,0-8-1.56-11.95-1.39l2.5,1.25c0,0-7.68-0.98-11.29-0.24l2.08,1.02l-11.85,1.83l0.55,0.26
				c0,0,18.29,7.85,23.55,11.95c12.09,9.45,32.21,20.46,38,23.46l21.82,10.15c-0.12-2.46-0.7-15.76-2.41-21.62l-0.59,1.63
				c0,0-3.87-9.68-6.21-13.04L186.11,41.47z"/>
			<g class="st9">
				<path class="st10" d="M188.52,67.78c0,0-9.58-8.18-18.31-28.6c0,0,6.88,17.98,8.95,23.38l-0.72-0.41
					c-2.32-2.17-14.32-21.29-15.73-27.41c1.5,6.5,8.52,22.73,9.07,23.7c0,0-15.66-13.68-16.47-23.32c0,0-0.41,8.75,7.99,18.71
					c-4.65-4.47-12.02-12.7-16.71-23.66c0,0,5.72,14.95,7.44,19.44l-0.59-0.34c-1.93-1.81-11.91-20.91-12.15-21.47
					c2.58,5.97,6.16,17.58,6.62,18.38c0,0-13.02-11.37-13.7-19.38c0,0-0.29,6.25,5.24,13.76c-9.25-7.21-27.44-13.95-27.44-13.95
					l-0.44,0.07l0.08,0.27c14.83,5.75,25.79,14.97,28.82,17.55c-13.3-1.72-20.99,1.73-20.99,1.73c14.61-3.17,27.27,1.77,27.27,1.77
					c-11.62-1.46-21.62,3.4-21.62,3.4c10.35-3.05,25.55-1.71,28.1-1.1l0.42,0.21c-5.41,0.86-24.25,4.55-24.25,4.55
					c18.6-3.49,31.18-0.04,36.03,1.76c-17.59-2.91-27.84,1.69-27.84,1.69c17.58-3.82,32.8,2.12,32.8,2.12c-13.98-1.75-26,4.1-26,4.1
					c12.45-3.67,30.73-2.06,33.81-1.33l0.51,0.25c-6.51,1.03-29.18,5.47-29.18,5.47c29.18-5.47,37.53-0.25,37.53-0.25
					c-15.71-0.31-25.53,6.31-25.53,6.31c21.19-8.59,34.05-2.81,34.05-2.81l-2.18-1.23l2.08,1.03c0,0-11.84-7.2-13.56-26.56
					C181.91,45.62,180.68,56.19,188.52,67.78z M166.18,56.93l-0.32-0.18l0.28,0.14C166.16,56.9,166.17,56.91,166.18,56.93z"/>
			</g>
		</g>
		<g>
			
				<linearGradient id="SVGID_00000014635344808238743440000011434543034815684491_" gradientUnits="userSpaceOnUse" x1="12272.5127" y1="567.3401" x2="12220.5098" y2="581.4654" gradientTransform="matrix(-0.2066 0.9784 -0.9784 -0.2066 3208.2207 -11794.8301)">
				<stop  offset="0" style="stop-color:#3AAA35"/>
				<stop  offset="0.497" style="stop-color:#95C11F"/>
				<stop  offset="1" style="stop-color:#3AAA35"/>
			</linearGradient>
			<path style="fill:url(#SVGID_00000014635344808238743440000011434543034815684491_);" d="M167.73,66.43
				c0,0-10.77-12.75-16.79-17.35l0.59,1.72c0,0-9.88-6.29-14.16-7.95l1.2,1.79c0,0-11.76-3.41-17.51-3.16l1.77,1.2
				c0,0-13.16-1.42-17.11,0.67l3.34,1.2c0,0-9.97,1.83-15.35,4.04l3.03,0.33c0,0-8.36,2.57-10.76,3.95l3.02,0.21
				c0,0-7.95,2.9-11.23,5.13l2.99-0.25c0,0-7.28,3.22-9.88,5.76l2.48-0.23l-8.86,7.84c0,0,5.13,4.01,7.78,5.8l-1.55,0.07
				c0,0,5.9,3.06,10.1,5.37l-2.86,0.12c0,0,8.05,3.58,15.73,6.19l-4.51,0.2c0,0,10.05,2.33,15.89,3.37l-3.53,0.15
				c0,0,14.02,2.65,19.96,1.33l-3.91,1.55c0,0,7.7-0.15,14-3.01l-1.64,2.47c0,0,7.85-3.84,12.62-6.42c0,0-1.73,2.35-2.2,3.41
				c0,0,7.42-5.84,11.26-8.83l-0.25,2.09C151.4,85.19,164.14,72.76,167.73,66.43z"/>
			<defs>
				
					<filter id="Adobe_OpacityMaskFilter_00000082346822296338262920000014835537531659856058_" filterUnits="userSpaceOnUse" x="64.51" y="41.46" width="103.21" height="29.87">
					<feFlood  style="flood-color:white;flood-opacity:1" result="back"/>
					<feBlend  in="SourceGraphic" in2="back" mode="normal"/>
				</filter>
			</defs>
			
				<mask maskUnits="userSpaceOnUse" x="64.51" y="41.46" width="103.21" height="29.87" id="SVGID_00000020394220274376191490000001176527093503978626_">
				<g style="filter:url(#Adobe_OpacityMaskFilter_00000082346822296338262920000014835537531659856058_);">
					<defs>
						
							<filter id="Adobe_OpacityMaskFilter_00000181781000168321242420000003522799769524297358_" filterUnits="userSpaceOnUse" x="64.51" y="41.46" width="103.21" height="29.87">
							<feFlood  style="flood-color:white;flood-opacity:1" result="back"/>
							<feBlend  in="SourceGraphic" in2="back" mode="normal"/>
						</filter>
					</defs>
					
						<mask maskUnits="userSpaceOnUse" x="64.51" y="41.46" width="103.21" height="29.87" id="SVGID_00000020394220274376191490000001176527093503978626_">
					</mask>
					
						<linearGradient id="SVGID_00000142160285753508023650000009663474110998809732_" gradientUnits="userSpaceOnUse" x1="-10331.5293" y1="-4478.0718" x2="-10306.3643" y2="-4478.0718" gradientTransform="matrix(-0.0569 -0.9984 0.9984 -0.0569 3999.0999 -10501.9941)">
						<stop  offset="0" style="stop-color:#999999"/>
						<stop  offset="0.2731" style="stop-color:#676767"/>
						<stop  offset="0.6115" style="stop-color:#303030"/>
						<stop  offset="0.864" style="stop-color:#0D0D0D"/>
						<stop  offset="1" style="stop-color:#000000"/>
					</linearGradient>
					
						<path style="mask:url(#SVGID_00000020394220274376191490000001176527093503978626_);fill:url(#SVGID_00000142160285753508023650000009663474110998809732_);" d="
						M138.69,44.64c0,0-11.76-3.42-17.5-3.17l1.76,1.2c0,0-13.16-1.42-17.1,0.68l3.34,1.2c0,0-9.98,1.83-15.35,4.03l3.03,0.34
						c0,0-8.35,2.57-10.77,3.95l3.02,0.22c0,0-7.95,2.89-11.23,5.12l3-0.25c0,0-7.28,3.21-9.89,5.76l2.48-0.23l-8.97,7.84l0.64-0.07
						c0,0,21.05-2.92,28.36-2.15c16.79,1.75,41.56,0.6,48.57,0.12l25.64-2.79c-1.76-2.06-11.24-13.2-16.67-17.36l0.59,1.72
						c0,0-9.87-6.29-14.15-7.95L138.69,44.64z"/>
				</g>
			</mask>
			
				<linearGradient id="SVGID_00000181768779208633328630000014218103504981615536_" gradientUnits="userSpaceOnUse" x1="-10331.5293" y1="-4478.0718" x2="-10306.3643" y2="-4478.0718" gradientTransform="matrix(-0.0569 -0.9984 0.9984 -0.0569 3999.0999 -10501.9941)">
				<stop  offset="0" style="stop-color:#95C11F"/>
				<stop  offset="0.321" style="stop-color:#B3CC06"/>
				<stop  offset="0.7616" style="stop-color:#D3D800"/>
				<stop  offset="1" style="stop-color:#DEDC00"/>
			</linearGradient>
			<path style="fill:url(#SVGID_00000181768779208633328630000014218103504981615536_);" d="M138.69,44.64c0,0-11.76-3.42-17.5-3.17
				l1.76,1.2c0,0-13.16-1.42-17.1,0.68l3.34,1.2c0,0-9.98,1.83-15.35,4.03l3.03,0.34c0,0-8.35,2.57-10.77,3.95l3.02,0.22
				c0,0-7.95,2.89-11.23,5.12l3-0.25c0,0-7.28,3.21-9.89,5.76l2.48-0.23l-8.97,7.84l0.64-0.07c0,0,21.05-2.92,28.36-2.15
				c16.79,1.75,41.56,0.6,48.57,0.12l25.64-2.79c-1.76-2.06-11.24-13.2-16.67-17.36l0.59,1.72c0,0-9.87-6.29-14.15-7.95
				L138.69,44.64z"/>
			<g class="st9">
				<path class="st10" d="M158.53,66.03c0,0-13.77-1.98-35.08-14.96c0,0,18.07,11.85,23.5,15.41l-0.89,0.03
					c-3.47-0.65-26.71-10.77-32.05-15.29c5.68,4.81,22.69,15.08,23.81,15.63c0,0-22.72-3.5-29.94-11.38c0,0,5.56,7.75,19.51,11.89
					c-7.02-1.39-18.93-4.58-30.36-11.54c0,0,15.02,9.85,19.53,12.81l-0.74,0.02c-2.88-0.54-24.37-11.72-24.96-12.06
					c6.25,3.78,17.18,11.88,18.11,12.34c0,0-18.89-2.91-24.88-9.45c0,0,3.98,5.53,13.8,9.08c-12.83-1.32-33.05,2.49-33.05,2.49
					l-0.33,0.3l0.25,0.2c16.65-2.89,32.32-0.74,36.68-0.12c-12.62,5.55-16.91,12.58-16.91,12.58C94.97,73.53,109.2,71.1,109.2,71.1
					c-11,4.89-16.32,14.36-16.32,14.36c6.87-8.1,20.86-14.99,23.46-15.81l0.5-0.04c-4.08,3.6-17.82,16.74-17.82,16.74
					c13.67-12.84,26.83-16.52,32.22-17.54c-17.11,6.8-22.84,16.18-22.84,16.18c12.57-12.58,29.69-15.51,29.69-15.51
					c-13.22,5.88-19.63,17.27-19.63,17.27c8.25-9.74,25.08-18.02,28.22-19.02l0.61-0.05c-4.92,4.34-21.45,20.14-21.45,20.14
					c21.45-20.14,32.16-20.06,32.16-20.06c-13.74,8.04-17.73,18.93-17.73,18.93c12.45-18.61,27.43-20.42,27.43-20.42l-2.7,0.09
					l2.49-0.21c0,0-15.06,0.06-29.61-15.71C137.88,50.43,143.96,60.19,158.53,66.03z M131.97,68.5l-0.4,0.01l0.34-0.03
					C131.92,68.48,131.94,68.48,131.97,68.5z"/>
			</g>
		</g>
		
			<linearGradient id="SVGID_00000071547105889101551000000002483394841360779396_" gradientUnits="userSpaceOnUse" x1="-3392.7271" y1="-5346.0791" x2="-3489.4875" y2="-5346.0791" gradientTransform="matrix(0.0933 -0.9957 0.9957 0.0933 5915.2534 -2856.948)">
			<stop  offset="0" style="stop-color:#3AAA35"/>
			<stop  offset="0.497" style="stop-color:#95C11F"/>
			<stop  offset="1" style="stop-color:#3AAA35"/>
		</linearGradient>
		<path style="fill:url(#SVGID_00000071547105889101551000000002483394841360779396_);" d="M190.02,111.57l98.87,8.32
			c29.74,2.47,56.1-16.87,58.89-43.19c2.79-26.32-19.06-49.65-48.8-52.12l-98.87-8.33L190.02,111.57z"/>
	</g>
</g>
</svg>
