<?xml version="1.0" encoding="utf-8"?>
<!-- Generator: Adobe Illustrator 26.0.1, SVG Export Plug-In . SVG Version: 6.00 Build 0)  -->
<svg version="1.1" id="Calque_1" xmlns="http://www.w3.org/2000/svg" xmlns:xlink="http://www.w3.org/1999/xlink" x="0px" y="0px"
	 viewBox="0 0 595.28 212" style="enable-background:new 0 0 595.28 212;" xml:space="preserve">
<style type="text/css">
	.st0{fill:url(#SVGID_1_);}
	.st1{fill:url(#SVGID_00000142855491737940307960000001513847142754039937_);}
	.st2{fill:url(#SVGID_00000172419473117844455290000002284704212247437701_);}
	.st3{fill:url(#SVGID_00000165955937256901676550000005903885494640036512_);}
	.st4{fill:url(#SVGID_00000164487106514328658840000005218863564246375084_);}
	.st5{fill:#00989F;}
	.st6{font-family:'ArialMT';}
	.st7{font-size:69.5209px;}
	.st8{fill:#D6E3A0;}
	.st9{font-family:'MaiandraGD-Regular';}
	.st10{font-size:37.3495px;}
</style>
<g>
	<g>
		
			<linearGradient id="SVGID_1_" gradientUnits="userSpaceOnUse" x1="212.078" y1="60.4425" x2="209.3283" y2="-102.2445" gradientTransform="matrix(0.6791 -0.734 0.734 0.6791 34.1334 245.5639)">
			<stop  offset="0" style="stop-color:#3F4798"/>
			<stop  offset="0.4916" style="stop-color:#07989F"/>
			<stop  offset="1" style="stop-color:#D7E3A0"/>
		</linearGradient>
		<path class="st0" d="M178.81,69.54c0.01,0.01,0.01,0.01,0.01,0.02c5.54,14.13,8.19,31.51,6.56,52.85l-0.26-0.23
			c-20.11-92.8-105.99-96.4-109.56-96.52C152.13,22.47,178.16,68.37,178.81,69.54z"/>
		
			<linearGradient id="SVGID_00000029012064716477409060000018322833528111848851_" gradientUnits="userSpaceOnUse" x1="206.3192" y1="30.1073" x2="200.8392" y2="-134.2892" gradientTransform="matrix(0.6791 -0.734 0.734 0.6791 34.1334 245.5639)">
			<stop  offset="0" style="stop-color:#D7E3A0"/>
			<stop  offset="0.5084" style="stop-color:#07989F"/>
			<stop  offset="1" style="stop-color:#3F4798"/>
		</linearGradient>
		<path style="fill:url(#SVGID_00000029012064716477409060000018322833528111848851_);" d="M185.12,122.18
			C154.22,44.23,75.56,25.67,75.56,25.67C79.13,25.78,165.01,29.39,185.12,122.18z"/>
		
			<linearGradient id="SVGID_00000166654934328153433030000016328696177524525442_" gradientUnits="userSpaceOnUse" x1="183.758" y1="114.665" x2="261.7644" y2="22.9734">
			<stop  offset="0" style="stop-color:#3F4798"/>
			<stop  offset="0.4916" style="stop-color:#07989F"/>
			<stop  offset="1" style="stop-color:#D7E3A0"/>
		</linearGradient>
		<path style="fill:url(#SVGID_00000166654934328153433030000016328696177524525442_);" d="M190.87,114.73l0.14-0.2
			c65.12-23.51,58.21-80.32,57.89-82.68c0.01-0.02,0-0.04-0.01-0.05c0-0.01,0-0.01,0-0.01c0-0.01,0-0.02,0-0.02l-0.34-0.22
			c-52.67,9.78-62.45,45.09-62.69,45.98c0-0.05,0.01-0.09,0.01-0.13c0.09-0.65,0.18-1.28,0.28-1.91c0.07-0.43,0.14-0.85,0.21-1.27
			c0.1-0.51,0.2-1.02,0.31-1.53l0.2-0.91c0.07-0.3,0.14-0.6,0.21-0.9c0.07-0.3,0.15-0.61,0.23-0.91c0.08-0.3,0.16-0.61,0.24-0.9
			c0.08-0.28,0.16-0.55,0.24-0.83c0.05-0.16,0.09-0.33,0.14-0.48c0.09-0.28,0.18-0.56,0.26-0.83c0.23-0.71,0.47-1.41,0.73-2.09
			c0.1-0.28,0.2-0.56,0.31-0.83c0.1-0.27,0.21-0.55,0.32-0.82c0.21-0.54,0.44-1.08,0.68-1.61c0.12-0.26,0.24-0.52,0.35-0.79
			c0.06-0.13,0.13-0.26,0.19-0.39c0.06-0.13,0.12-0.26,0.18-0.39c0.28-0.58,0.56-1.15,0.86-1.72c0.13-0.25,0.26-0.49,0.39-0.73
			c0.16-0.3,0.34-0.6,0.5-0.9c0.34-0.59,0.68-1.16,1.03-1.73c0.17-0.29,0.35-0.56,0.53-0.85c0.09-0.15,0.19-0.3,0.29-0.44
			c0.02-0.03,0.04-0.06,0.06-0.1c0.63-0.97,1.29-1.91,1.96-2.82c0.31-0.42,0.62-0.84,0.95-1.26c0.25-0.31,0.5-0.63,0.76-0.95
			c0.08-0.11,0.18-0.22,0.27-0.33c0.32-0.38,0.63-0.76,0.96-1.13l0.01-0.01c0.32-0.37,0.64-0.73,0.97-1.1
			c0.03-0.03,0.05-0.05,0.08-0.08c0.35-0.38,0.69-0.75,1.04-1.12c0.28-0.29,0.57-0.59,0.86-0.88c0.12-0.14,0.24-0.26,0.38-0.39
			c0.27-0.27,0.53-0.53,0.81-0.79c0.06-0.06,0.13-0.13,0.2-0.19c0.34-0.33,0.69-0.66,1.03-0.97c0.01-0.02,0.04-0.03,0.04-0.04
			c0.29-0.27,0.59-0.54,0.89-0.8c0.19-0.17,0.38-0.33,0.57-0.49c0.31-0.28,0.64-0.55,0.97-0.82c0.33-0.29,0.68-0.57,1.03-0.85
			c0.34-0.28,0.69-0.56,1.04-0.83c0.14-0.11,0.29-0.22,0.43-0.33c0.26-0.2,0.53-0.4,0.8-0.61c1.39-1.04,2.81-2.04,4.24-2.98
			c0.27-0.17,0.53-0.34,0.8-0.51c2.27-1.47,4.58-2.8,6.89-4.03c0.28-0.15,0.56-0.3,0.85-0.44c0.95-0.5,1.9-0.97,2.84-1.42
			c0.37-0.18,0.75-0.37,1.11-0.54c1.13-0.53,2.26-1.04,3.37-1.51c0.35-0.16,0.7-0.3,1.05-0.44c0.26-0.12,0.52-0.22,0.79-0.32
			c0.33-0.14,0.65-0.27,0.98-0.4c0.52-0.21,1.04-0.41,1.55-0.61c0.42-0.17,0.84-0.32,1.25-0.47c0.41-0.16,0.82-0.31,1.23-0.46
			c0.41-0.14,0.81-0.29,1.21-0.43c0.4-0.14,0.79-0.28,1.19-0.41c0.4-0.13,0.79-0.26,1.17-0.39c0.05-0.02,0.12-0.03,0.17-0.06
			c1.11-0.36,2.17-0.68,3.2-1c0.01,0,0.01,0,0.01,0c0.36-0.11,0.71-0.21,1.06-0.31c0.75-0.23,1.49-0.42,2.2-0.61
			c0.28-0.07,0.57-0.16,0.84-0.23c1.29-0.34,2.49-0.63,3.58-0.89c0.16-0.03,0.32-0.07,0.48-0.1c0.38-0.09,0.74-0.17,1.09-0.24
			c0.25-0.05,0.48-0.1,0.72-0.16c0.69-0.15,1.32-0.27,1.89-0.38c0.19-0.04,0.37-0.07,0.54-0.1c1.01-0.19,1.73-0.3,2.1-0.37l0.01,0
			c0.1,0.42,0.3,1.26,0.56,2.49c0.04,0.18,0.08,0.37,0.11,0.56c0.32,1.54,0.69,3.57,1.03,6c0.09,0.61,0.17,1.24,0.25,1.89
			c0.04,0.33,0.08,0.66,0.12,1c0.07,0.67,0.15,1.37,0.22,2.09c0.28,2.87,0.48,6.08,0.53,9.5c0.01,0.43,0.01,0.86,0.01,1.29
			c0,0.88-0.02,1.76-0.04,2.66c-0.01,0.45-0.01,0.9-0.03,1.35l0,0.01c-0.08,2.11-0.23,4.28-0.46,6.49
			c-0.03,0.33-0.06,0.65-0.11,0.98c-0.12,1.12-0.27,2.25-0.44,3.38c-0.05,0.31-0.1,0.62-0.16,0.93c-0.29,1.79-0.65,3.6-1.07,5.4
			l0,0.01c-0.24,0.99-0.48,1.96-0.76,2.95c-0.26,0.92-0.53,1.85-0.82,2.77c-0.29,0.92-0.61,1.83-0.94,2.75
			c-0.09,0.25-0.18,0.5-0.28,0.74c-2.06,5.49-4.89,10.87-8.71,15.87c-0.36,0.49-0.75,0.97-1.15,1.45c-0.39,0.48-0.79,0.96-1.2,1.43
			c-0.21,0.24-0.42,0.46-0.62,0.7c-0.42,0.47-0.86,0.94-1.3,1.4c-0.22,0.23-0.44,0.46-0.67,0.68c-0.2,0.2-0.4,0.4-0.61,0.61
			l-1.9,1.77c-0.21,0.2-0.44,0.39-0.66,0.58c-0.22,0.19-0.45,0.39-0.67,0.57c-0.22,0.2-0.45,0.38-0.68,0.57
			c-0.69,0.57-1.4,1.12-2.13,1.67c-0.73,0.54-1.48,1.08-2.25,1.6c-0.3,0.2-0.58,0.39-0.87,0.59c-0.23,0.15-0.46,0.3-0.7,0.44
			c-0.26,0.17-0.53,0.34-0.8,0.51c-0.27,0.16-0.54,0.33-0.82,0.49c-0.55,0.33-1.11,0.66-1.67,0.97c-0.28,0.15-0.56,0.31-0.85,0.46
			c-0.01,0.01-0.01,0.01-0.01,0.01C218.87,109.76,206.54,113.43,190.87,114.73z"/>
		
			<linearGradient id="SVGID_00000160150811639158070740000010357482344695180466_" gradientUnits="userSpaceOnUse" x1="35.2336" y1="159.8453" x2="146.5698" y2="28.9766">
			<stop  offset="0" style="stop-color:#07989F"/>
			<stop  offset="1" style="stop-color:#D7E3A0"/>
		</linearGradient>
		<path style="fill:url(#SVGID_00000160150811639158070740000010357482344695180466_);" d="M75.44,25.67l-0.41,0.41
			c2.37,67.89,46,90.92,53.07,94.21c0.07,0.01,0.16,0.02,0.23,0.03c0.04,0.01,0.08,0.01,0.13,0.03h-0.21
			c0.44,0.2,0.7,0.31,0.79,0.35c-0.07-0.01-0.13-0.03-0.19-0.05c-0.36-0.1-0.73-0.21-1.08-0.31c-5.41-0.03-40.34,1.5-63.98,43.44
			l0.12,0.37l0.01,0.01c0,0,0,0,0.01,0c0.01,0.01,0.04,0.02,0.05,0.02c2.11,0.92,49.62,20.81,90.66-18.05
			c-43.48,59.62-107.53,23.49-108.63,22.87C46,169,46,169,46,169c0.18-0.31,0.5-0.93,0.99-1.8c0.07-0.15,0.16-0.3,0.25-0.46
			c0.28-0.48,0.59-1.01,0.94-1.6c0.12-0.2,0.24-0.39,0.36-0.6c0.18-0.3,0.36-0.6,0.57-0.92c0.08-0.14,0.17-0.26,0.24-0.4
			c0.59-0.92,1.24-1.92,1.96-3c0.15-0.23,0.31-0.46,0.47-0.7c0.4-0.59,0.81-1.2,1.26-1.81c0.21-0.29,0.41-0.58,0.63-0.88
			c0,0,0,0,0-0.01c0.63-0.84,1.26-1.7,1.95-2.62c0.04-0.03,0.07-0.09,0.11-0.14c0.24-0.31,0.48-0.62,0.74-0.94
			c0.25-0.32,0.51-0.63,0.76-0.97c0.25-0.32,0.52-0.65,0.79-0.97c0.27-0.33,0.54-0.66,0.82-0.99c0.28-0.32,0.54-0.66,0.84-0.99
			c0.35-0.4,0.7-0.82,1.07-1.23c0.23-0.26,0.46-0.52,0.7-0.77c0.18-0.21,0.35-0.43,0.56-0.62c0.24-0.28,0.48-0.54,0.75-0.82
			c0.8-0.88,1.63-1.75,2.51-2.63c0.29-0.28,0.58-0.56,0.87-0.85c0.73-0.73,1.49-1.45,2.26-2.17c0.23-0.22,0.46-0.43,0.7-0.63
			c1.9-1.74,3.92-3.44,6.07-5.08c0.25-0.18,0.5-0.38,0.75-0.56c1.37-1.03,2.79-2.03,4.24-2.98c0.29-0.18,0.58-0.36,0.85-0.54
			c0.16-0.09,0.31-0.2,0.46-0.29c0.39-0.24,0.76-0.47,1.15-0.7c0.38-0.23,0.76-0.46,1.15-0.68c0.36-0.22,0.74-0.44,1.11-0.63
			c0.22-0.13,0.44-0.25,0.67-0.38c0.35-0.2,0.7-0.38,1.07-0.58c0.01,0,0.02-0.01,0.05-0.02c0.41-0.22,0.85-0.44,1.28-0.65
			c0.07-0.05,0.17-0.09,0.24-0.13c0.35-0.18,0.69-0.35,1.04-0.51c0.16-0.08,0.33-0.16,0.5-0.23c0.38-0.17,0.75-0.36,1.14-0.52
			c0.47-0.21,0.93-0.41,1.42-0.62c0.04-0.01,0.07-0.02,0.11-0.05c0.46-0.18,0.92-0.37,1.39-0.55h0.01c0.46-0.18,0.93-0.37,1.4-0.54
			c0.13-0.05,0.28-0.1,0.41-0.14c0.4-0.15,0.79-0.28,1.19-0.41c0.51-0.17,1.02-0.35,1.54-0.5c1.11-0.35,2.25-0.67,3.42-0.96
			c0.04,0,0.07-0.01,0.11-0.02c0.17-0.05,0.35-0.09,0.53-0.13c0.34-0.08,0.67-0.16,1.01-0.24c0.68-0.15,1.36-0.29,2.05-0.41
			c0.35-0.06,0.7-0.13,1.05-0.2c0.29-0.05,0.56-0.08,0.85-0.13c0.65-0.1,1.31-0.2,1.97-0.28c0.15-0.02,0.3-0.03,0.45-0.05
			c0.15-0.02,0.3-0.05,0.45-0.06c0.3-0.02,0.59-0.06,0.9-0.09c0.61-0.06,1.21-0.1,1.82-0.14c0.3-0.02,0.61-0.05,0.92-0.06
			c0.3-0.01,0.62-0.02,0.92-0.03c0.76-0.03,1.54-0.05,2.31-0.05c0.3,0,0.61,0.01,0.92,0c0.17,0.01,0.35,0.01,0.52,0.02
			c0.3,0.01,0.61,0.01,0.91,0.02c0.31,0.01,0.64,0.02,0.97,0.05c0.34,0.01,0.67,0.03,0.99,0.06c0.33,0.02,0.64,0.05,0.97,0.07
			l0.97,0.09c0.54,0.05,1.09,0.12,1.63,0.16c0.44,0.07,0.88,0.13,1.33,0.18c0.22,0.03,0.44,0.06,0.67,0.1
			c-0.3-0.09-0.62-0.18-0.92-0.28c-0.61-0.18-1.22-0.38-1.83-0.58c-0.74-0.24-1.47-0.5-2.19-0.75l-1.32-0.48
			c-0.42-0.16-0.85-0.32-1.28-0.48c-0.44-0.17-0.87-0.35-1.31-0.52c-0.42-0.18-0.86-0.36-1.28-0.53c-0.39-0.17-0.77-0.35-1.17-0.51
			c-0.23-0.1-0.46-0.21-0.68-0.31c-0.4-0.18-0.79-0.36-1.19-0.54c-0.99-0.47-1.97-0.96-2.93-1.45c-0.39-0.2-0.78-0.4-1.16-0.6
			c-0.39-0.21-0.76-0.41-1.14-0.62c-0.75-0.41-1.5-0.84-2.24-1.28c-0.35-0.22-0.71-0.44-1.09-0.66c-0.17-0.12-0.35-0.23-0.53-0.33
			c-0.17-0.12-0.36-0.23-0.53-0.33c-0.8-0.51-1.57-1.03-2.35-1.54c-0.34-0.23-0.68-0.46-1.01-0.69c-0.41-0.28-0.82-0.58-1.22-0.88
			c-0.8-0.58-1.57-1.16-2.34-1.76c-0.39-0.3-0.76-0.6-1.14-0.91c-0.21-0.15-0.41-0.32-0.59-0.48c-0.05-0.03-0.1-0.07-0.13-0.1
			c-1.28-1.06-2.54-2.17-3.74-3.28c-0.56-0.51-1.1-1.03-1.65-1.56c-0.41-0.41-0.82-0.82-1.24-1.23c-0.15-0.14-0.29-0.29-0.42-0.44
			c-0.5-0.51-0.98-1.01-1.45-1.53c-0.01-0.01-0.01-0.01-0.01-0.01c-0.48-0.52-0.96-1.04-1.42-1.56c-0.04-0.05-0.07-0.08-0.1-0.13
			c-0.5-0.54-0.97-1.09-1.43-1.65c-0.38-0.45-0.74-0.9-1.1-1.35c-0.17-0.2-0.34-0.39-0.48-0.6c-0.34-0.41-0.68-0.83-0.99-1.26
			c-0.08-0.12-0.16-0.22-0.24-0.32c-0.41-0.53-0.81-1.06-1.2-1.6c-0.02-0.02-0.04-0.05-0.05-0.07c-0.34-0.45-0.67-0.91-0.99-1.38
			c-0.21-0.29-0.41-0.58-0.61-0.88c-0.34-0.48-0.68-0.98-1.01-1.49c-0.35-0.51-0.69-1.04-1.03-1.57c-0.33-0.52-0.67-1.05-0.99-1.58
			c-0.12-0.22-0.25-0.44-0.39-0.66c-0.24-0.4-0.48-0.81-0.73-1.21c-1.24-2.11-2.39-4.24-3.45-6.37c-0.21-0.39-0.4-0.78-0.58-1.17
			c-1.67-3.4-3.12-6.8-4.42-10.17c-0.16-0.41-0.31-0.82-0.47-1.23c-0.52-1.39-1.01-2.78-1.47-4.15c-0.18-0.54-0.36-1.08-0.53-1.62
			c-0.54-1.64-1.03-3.26-1.49-4.86c-0.15-0.51-0.28-1.01-0.42-1.52c-0.1-0.37-0.21-0.74-0.3-1.12c-0.12-0.47-0.25-0.94-0.36-1.41
			c-0.19-0.76-0.38-1.5-0.54-2.22c-0.16-0.61-0.29-1.2-0.42-1.8c-0.13-0.58-0.27-1.16-0.39-1.75c-0.12-0.58-0.25-1.15-0.36-1.72
			c-0.12-0.58-0.23-1.13-0.34-1.69c-0.11-0.56-0.22-1.12-0.31-1.67c-0.02-0.07-0.02-0.16-0.05-0.24c-0.28-1.56-0.53-3.06-0.75-4.53
			c-0.01,0-0.01,0-0.01,0c-0.07-0.51-0.15-1.01-0.22-1.51c-0.16-1.05-0.29-2.09-0.41-3.08c-0.05-0.4-0.1-0.81-0.15-1.19
			c-0.21-1.81-0.38-3.49-0.51-5.02c-0.01-0.22-0.04-0.44-0.05-0.66c-0.05-0.53-0.08-1.04-0.12-1.52c-0.01-0.35-0.04-0.67-0.06-1
			c-0.06-0.96-0.11-1.83-0.15-2.62c-0.01-0.26-0.02-0.51-0.02-0.74c-0.05-1.41-0.06-2.4-0.07-2.91h0.01
			c0.63-0.05,1.94-0.13,3.83-0.2c0.28-0.01,0.57-0.02,0.85-0.02c2.36-0.08,5.47-0.1,9.14-0.01c0.92,0.01,1.88,0.05,2.87,0.08
			c0.5,0.02,0.99,0.05,1.5,0.07c1.02,0.05,2.08,0.1,3.16,0.17c4.34,0.28,9.13,0.73,14.23,1.45c0.64,0.08,1.28,0.17,1.93,0.28
			c1.3,0.2,2.6,0.41,3.92,0.65c0.67,0.12,1.33,0.23,2,0.36h0.01c3.11,0.6,6.31,1.29,9.53,2.1c0.48,0.12,0.96,0.23,1.43,0.37
			c1.62,0.41,3.27,0.88,4.92,1.36c0.45,0.14,0.9,0.28,1.34,0.43c2.59,0.78,5.18,1.68,7.77,2.65h0.01c1.4,0.54,2.81,1.11,4.2,1.68
			c1.31,0.55,2.63,1.13,3.92,1.73c1.3,0.6,2.58,1.23,3.86,1.89c0.35,0.17,0.7,0.36,1.04,0.54c7.69,4.01,15.03,9.03,21.58,15.3
			c0.64,0.61,1.27,1.23,1.9,1.87c0.62,0.65,1.24,1.29,1.84,1.95c0.3,0.33,0.61,0.66,0.91,0.99c0.59,0.68,1.19,1.37,1.77,2.06
			c0.29,0.35,0.58,0.7,0.87,1.06c0.25,0.31,0.5,0.62,0.76,0.94c0.75,0.97,1.48,1.95,2.2,2.95c0.24,0.35,0.47,0.68,0.7,1.03
			c0.24,0.35,0.47,0.68,0.7,1.04c0.24,0.33,0.47,0.69,0.69,1.04c0.68,1.06,1.34,2.13,1.99,3.24c0.64,1.11,1.27,2.23,1.87,3.39
			c0.23,0.44,0.45,0.86,0.68,1.3c0.16,0.35,0.33,0.69,0.5,1.04c0.19,0.39,0.38,0.79,0.57,1.2c0.18,0.4,0.36,0.79,0.54,1.21
			c0.36,0.81,0.71,1.64,1.07,2.47c0.16,0.41,0.33,0.83,0.48,1.24c-0.64-1.16-26.68-47.07-103.24-43.87
			c-0.04-0.01-0.07-0.01-0.1-0.01c0,0.01,0,0.01,0,0.01C75.45,25.67,75.44,25.67,75.44,25.67z"/>
		
			<linearGradient id="SVGID_00000003105802960474250050000007301912063956252816_" gradientUnits="userSpaceOnUse" x1="160.3854" y1="147.322" x2="160.4148" y2="147.322">
			<stop  offset="0" style="stop-color:#07989F"/>
			<stop  offset="1" style="stop-color:#D7E3A0"/>
		</linearGradient>
		<path style="fill:url(#SVGID_00000003105802960474250050000007301912063956252816_);" d="M160.41,147.3
			c-0.01,0.01-0.01,0.03-0.03,0.04"/>
	</g>
	<text transform="matrix(1.0512 0 0 1 141.5898 165.4404)" class="st5 st6 st7">PARATUN</text>
	<text transform="matrix(0.9742 0 0 1 250.1807 198.3047)" class="st8 st9 st10">take care of yourself</text>
</g>
</svg>
